<?xml version="1.0" standalone="no"?>
<!DOCTYPE svg PUBLIC "-//W3C//DTD SVG 20010904//EN"
 "http://www.w3.org/TR/2001/REC-SVG-20010904/DTD/svg10.dtd">
<svg version="1.0" xmlns="http://www.w3.org/2000/svg"
 width="550.000000pt" height="550.000000pt" viewBox="0 0 550.000000 550.000000"
 preserveAspectRatio="xMidYMid meet">

<g transform="translate(0.000000,550.000000) scale(0.100000,-0.100000)"
fill="#000000" stroke="none">
<path d="M1958 5420 c-35 -14 -63 -18 -118 -15 -46 3 -83 0 -104 -9 -40 -17
-110 -93 -168 -182 -40 -62 -59 -80 -145 -137 -103 -68 -140 -87 -394 -211
-157 -76 -255 -142 -349 -236 -57 -57 -89 -140 -74 -197 11 -45 61 -83 110
-83 18 0 113 20 211 45 196 50 331 69 458 63 94 -3 125 -19 156 -77 17 -32 18
-67 13 -605 -3 -314 -9 -593 -14 -621 -5 -30 -5 -51 1 -53 12 -5 12 -32 -1
-32 -5 0 -10 5 -10 11 0 6 -26 -13 -57 -41 -79 -70 -107 -83 -279 -125 -171
-43 -198 -54 -224 -98 -42 -68 -17 -138 63 -179 23 -11 58 -37 78 -57 103
-105 170 -141 261 -141 135 0 165 -33 178 -194 11 -127 30 -986 33 -1461 l2
-360 31 -65 c18 -37 34 -91 38 -125 8 -72 31 -115 75 -137 43 -21 72 -12 157
48 48 34 72 59 85 88 34 79 84 518 94 831 8 269 24 625 46 1045 27 527 33 544
211 604 276 95 390 152 673 342 227 151 330 245 495 449 35 44 92 112 126 150
101 116 224 277 252 330 38 72 38 179 0 250 -78 146 -399 467 -593 590 -94 60
-410 224 -510 265 -141 58 -310 107 -404 119 -122 16 -140 28 -202 139 -50 89
-108 110 -201 72z m39 -72 c-2 -13 -4 -3 -4 22 0 25 2 35 4 23 2 -13 2 -33 0
-45z m-180 -35 c-3 -10 -5 -2 -5 17 0 19 2 27 5 18 2 -10 2 -26 0 -35z m44
-52 c13 20 28 -5 31 -51 1 -19 4 -3 8 35 6 68 7 69 8 17 1 -30 6 -51 11 -47 5
3 12 -5 14 -17 3 -18 5 -17 6 7 1 23 3 27 11 15 5 -8 10 -27 10 -42 0 -15 4
-29 9 -32 9 -6 17 24 30 114 7 47 8 49 10 18 1 -30 4 -36 17 -31 11 4 14 13 9
30 -4 16 -2 22 5 18 5 -3 10 -15 10 -26 0 -11 5 -17 10 -14 6 4 10 -13 11 -42
l1 -48 14 35 14 35 -4 -55 c-2 -30 -1 -50 1 -43 3 8 12 5 26 -10 12 -13 30
-21 40 -19 10 2 34 -4 52 -13 26 -12 40 -13 54 -5 11 5 26 10 33 9 7 0 4 -4
-7 -9 -18 -8 -18 -9 5 -10 14 -1 30 -3 35 -5 6 -1 33 -3 60 -4 38 -2 45 -4 30
-11 -18 -8 -17 -9 7 -9 15 -1 29 -5 33 -11 3 -5 12 -7 20 -3 8 3 15 1 15 -5 0
-5 12 -7 26 -4 21 4 25 2 19 -9 -8 -12 -6 -12 8 -1 9 8 22 10 29 6 13 -9 18
-10 53 -13 17 -1 18 -3 5 -12 -12 -8 -12 -10 5 -8 11 1 23 0 28 -1 15 -5 27
-8 43 -9 8 0 13 -5 10 -10 -4 -5 4 -7 16 -3 16 4 19 2 13 -8 -5 -8 -4 -11 3
-6 15 9 63 -4 56 -15 -3 -5 1 -6 8 -4 8 3 31 -1 53 -9 22 -8 33 -15 24 -15
-18 -1 -48 -31 -31 -31 6 0 14 4 17 10 4 6 17 4 36 -5 16 -9 29 -13 29 -11 0
15 236 -105 251 -127 3 -5 9 -8 13 -8 22 3 36 0 36 -9 0 -5 -8 -7 -17 -3 -11
4 -9 -2 7 -15 15 -13 29 -17 35 -11 5 5 14 9 20 9 5 0 3 -5 -5 -10 -11 -7 -11
-10 -2 -10 7 0 10 -5 6 -12 -4 -6 -3 -8 4 -4 6 3 16 -2 22 -11 10 -17 10 -17
8 1 -2 10 4 21 12 23 12 4 12 2 2 -5 -10 -7 -9 -13 5 -28 10 -11 14 -13 9 -4
-6 8 13 -7 42 -34 40 -39 49 -53 40 -63 -6 -7 -8 -16 -4 -20 3 -3 6 -1 6 5 0
7 5 12 10 12 6 0 10 -6 10 -13 0 -7 9 -18 20 -25 11 -7 20 -19 20 -28 0 -8 4
-13 9 -9 5 3 12 -4 16 -15 3 -11 9 -19 13 -18 14 3 42 -14 36 -23 -3 -5 15
-23 41 -41 25 -17 45 -38 45 -45 0 -7 6 -10 14 -7 16 6 42 -32 38 -54 -2 -7 5
-15 15 -19 18 -7 68 -61 68 -74 0 -4 3 -11 8 -15 4 -4 0 -16 -10 -26 -11 -13
-12 -18 -3 -18 9 0 9 -4 2 -13 -7 -8 -6 -18 4 -31 19 -26 18 -37 -3 -29 -13 5
-15 2 -11 -15 6 -21 -23 -62 -43 -62 -19 0 -69 -64 -64 -81 7 -22 -39 -59 -65
-54 -11 2 -22 0 -25 -5 -3 -5 4 -7 15 -5 26 5 25 -2 -2 -27 -13 -11 -16 -16
-8 -12 16 8 -6 -21 -45 -60 l-21 -21 21 15 c20 15 20 15 1 -7 -10 -12 -23 -21
-29 -20 -7 1 -13 -8 -15 -19 -2 -12 -12 -30 -23 -40 -10 -9 -19 -22 -19 -27 0
-6 -6 -17 -14 -26 -8 -9 -36 -40 -63 -69 -26 -30 -70 -72 -98 -95 l-50 -40 43
44 c53 55 102 114 102 124 0 10 23 30 43 38 9 3 16 10 16 14 -4 16 13 43 26
43 8 0 16 3 18 8 3 4 -5 7 -18 7 -13 0 -23 -4 -22 -9 1 -5 -4 -11 -12 -14 -9
-3 -11 0 -6 9 5 8 6 12 2 9 -3 -3 -6 -9 -7 -15 -2 -16 -49 -74 -89 -110 -25
-24 -38 -30 -44 -22 -6 8 -7 7 -4 -3 4 -16 -48 -99 -63 -101 -19 -3 -25 -5
-48 -17 -12 -7 -20 -17 -17 -22 3 -4 -11 -18 -30 -30 -35 -22 -36 -22 -58 -4
-22 19 -22 19 -4 -2 17 -21 17 -22 -7 -38 -30 -19 -40 -20 -30 -3 4 6 3 8 -1
4 -10 -8 -16 -37 -8 -37 2 0 14 5 26 11 19 9 19 7 -3 -13 -14 -13 -37 -31 -50
-40 -19 -14 -20 -16 -5 -11 18 6 18 5 7 -10 -8 -9 -18 -15 -22 -14 -5 1 -16
-7 -25 -18 -9 -11 -14 -13 -10 -5 3 8 -2 5 -11 -7 -9 -13 -23 -23 -31 -23 -10
0 -13 -6 -9 -16 3 -8 2 -12 -4 -9 -6 3 -10 0 -11 -7 0 -10 -2 -10 -6 0 -6 15
-23 6 -23 -12 0 -9 10 -12 28 -9 23 3 24 2 7 -6 -32 -15 -45 -12 -45 10 0 17
-4 20 -22 14 -13 -3 -29 -7 -36 -7 -8 -1 -9 -5 -3 -11 7 -7 15 -6 26 3 18 15
20 13 29 -16 7 -23 -7 -33 -52 -41 -17 -3 -22 0 -16 9 6 10 4 10 -9 -1 -18
-15 -23 -26 -7 -16 6 3 10 -1 10 -9 0 -9 -3 -15 -7 -14 -17 4 -53 -14 -47 -24
5 -7 2 -8 -6 -3 -10 6 -7 12 11 26 13 10 20 21 16 25 -4 4 -7 1 -7 -6 0 -7 -3
-11 -6 -7 -4 3 -13 -1 -21 -9 -8 -8 -20 -11 -26 -7 -7 3 -3 -4 8 -18 11 -13
16 -21 11 -17 -5 4 -16 0 -24 -9 -11 -10 -17 -12 -20 -4 -2 7 -8 6 -18 -4 -8
-8 -22 -11 -31 -8 -12 5 -14 3 -8 -7 5 -8 3 -11 -6 -8 -8 3 -20 -1 -27 -9 -16
-15 -42 -17 -42 -3 0 6 -4 10 -10 10 -5 0 -6 -8 -3 -17 6 -16 5 -16 -10 -4
-15 12 -17 11 -17 -3 0 -10 -4 -14 -10 -11 -5 3 -10 2 -10 -3 0 -9 -54 -28
-56 -20 0 2 -8 -3 -17 -10 -9 -8 -21 -11 -27 -7 -5 3 -10 1 -10 -5 0 -6 -5 -8
-12 -4 -8 5 -9 2 -5 -10 5 -14 3 -17 -8 -12 -8 3 -15 0 -15 -5 0 -7 -11 -9
-25 -7 -14 3 -25 1 -25 -4 0 -6 -7 -7 -16 -4 -8 3 -12 2 -9 -3 6 -11 -31 -25
-44 -17 -5 4 -11 1 -13 -5 -2 -7 -22 -13 -44 -14 -55 -4 -54 -4 -54 -18 0 -7
-16 -21 -35 -31 -32 -18 -33 -20 -17 -33 16 -14 16 -14 0 -9 -16 5 -18 -2 -18
-49 0 -30 4 -55 10 -55 11 0 4 -403 -9 -505 -5 -36 -7 26 -5 159 1 147 -1 215
-8 205 -7 -10 -8 -4 -4 19 4 21 2 31 -5 27 -6 -4 -8 -62 -5 -163 4 -98 2 -148
-3 -132 -6 17 -8 -10 -6 -80 2 -58 0 -139 -6 -180 -11 -84 -24 -262 -40 -540
-8 -135 -8 -193 0 -216 6 -17 10 -46 10 -65 -1 -22 -3 -27 -7 -14 -4 19 -5 19
-11 1 -9 -25 -1 -77 11 -70 6 4 7 -17 3 -53 -19 -169 -22 -195 -24 -164 0 19
-4 31 -8 27 -5 -4 -7 -53 -6 -109 1 -87 0 -94 -7 -47 -12 81 -12 209 0 190 7
-11 10 1 9 40 -1 94 -15 103 -22 15 -12 -141 -14 -346 -4 -352 6 -3 2 -12 -7
-19 -19 -13 -13 -39 6 -28 7 4 8 -2 3 -17 -5 -13 -13 -60 -20 -104 -9 -59 -13
-72 -17 -50 -3 17 -6 -6 -8 -50 -3 -74 -4 -76 -9 -30 l-6 50 -8 -35 c-4 -19
-13 -61 -20 -93 -17 -84 -26 -45 -22 98 1 66 -1 154 -5 195 l-7 75 -2 -63 c0
-36 -5 -61 -10 -57 -5 3 -12 -9 -14 -27 -3 -18 -4 -5 -3 29 2 68 0 75 -13 41
-7 -21 -9 -19 -12 12 -2 19 -1 51 2 70 4 21 7 27 9 15 1 -11 6 0 10 25 4 25 4
47 -1 50 -5 3 -7 55 -5 115 2 63 0 99 -4 85 -8 -25 -8 13 3 235 2 61 2 85 -2
55 -7 -67 -19 -55 -15 15 2 28 4 68 4 90 1 32 3 36 10 20 10 -24 10 -26 15 55
2 36 0 54 -3 40 -11 -44 -17 82 -14 295 2 142 6 196 13 185 8 -11 9 -4 5 25
-4 27 -2 35 4 25 8 -13 10 -12 10 3 0 9 -4 17 -9 17 -5 0 -12 30 -15 67 -4 38
-9 94 -12 127 -5 45 -3 57 6 51 13 -8 9 96 -11 237 -5 38 -5 86 0 112 5 26 5
49 0 52 -5 3 -9 14 -9 25 0 10 -7 19 -15 19 -8 0 -15 5 -15 11 0 5 -5 7 -10 4
-6 -4 -8 -10 -5 -14 7 -13 -88 -20 -109 -9 -11 6 -48 7 -93 3 -42 -4 -73 -3
-70 2 3 4 -19 7 -49 7 -66 -2 -62 10 8 26 29 7 56 18 60 24 4 7 14 4 27 -8 11
-10 26 -16 33 -13 9 4 8 6 -3 6 -9 1 -20 8 -23 16 -3 10 -1 15 7 14 6 -1 19 1
27 4 8 3 38 13 65 21 l50 15 -55 2 c-30 1 -62 2 -72 1 -9 -1 -22 5 -28 13 -10
12 -10 15 1 16 8 1 3 4 -11 8 -15 4 -29 3 -35 -5 -12 -14 -65 -25 -65 -13 0 5
9 9 20 9 11 0 20 4 20 8 0 11 -44 10 -52 -2 -4 -6 -16 -6 -33 2 -24 11 -27 11
-21 -3 4 -12 -1 -15 -24 -13 -29 2 -43 17 -17 19 6 0 1 5 -13 10 -15 7 -58 8
-109 4 -75 -6 -83 -5 -70 8 8 8 40 22 69 31 65 19 101 40 58 33 -16 -2 -28 -1
-28 3 0 4 19 11 43 14 23 4 55 13 70 21 15 7 77 21 138 30 61 9 121 21 133 26
16 7 13 8 -14 3 -92 -15 -110 -16 -110 -5 0 6 14 12 30 12 17 1 33 2 38 4 4 1
25 5 47 10 22 4 42 11 45 15 3 4 37 11 75 16 l70 9 6 93 c3 50 9 95 12 99 6 5
12 -131 8 -159 0 -4 6 -5 14 -2 8 4 15 13 15 21 0 8 -4 12 -10 8 -5 -3 -11 60
-14 162 -5 167 -9 242 -15 318 l-4 40 -7 -50 c-7 -47 -8 -47 -5 15 2 36 9 118
16 182 9 87 10 123 1 140 -10 21 -11 20 -11 -16 -1 -22 -4 -37 -7 -33 -8 8
-11 186 -3 181 4 -2 9 10 11 26 3 16 0 31 -5 33 -6 2 -6 21 0 52 10 53 9 262
-1 272 -3 4 -5 29 -4 57 l1 51 7 -45 c6 -39 7 -35 8 35 2 56 -1 76 -9 68 -6
-6 -13 -29 -16 -52 -7 -55 -23 -52 -23 3 0 51 -16 100 -29 92 -5 -3 -21 0 -36
8 -18 10 -22 16 -13 20 7 3 -2 4 -20 1 -20 -3 -31 -1 -27 5 3 6 -4 10 -17 9
-13 0 -17 -3 -10 -6 6 -2 10 -9 6 -14 -3 -5 7 -9 22 -9 38 0 27 -6 -26 -14
-32 -4 -41 -3 -30 4 13 9 13 11 0 19 -9 7 -17 6 -21 -1 -4 -7 -13 -7 -27 1
-29 16 -41 13 -18 -4 11 -8 15 -15 9 -15 -6 0 -19 -3 -27 -6 -12 -5 -15 -2
-10 10 4 11 0 16 -14 16 -29 0 -53 -11 -47 -20 3 -5 -7 -9 -22 -8 -29 0 -245
-34 -323 -52 -25 -5 -65 -12 -89 -15 -23 -3 -47 -8 -52 -11 -5 -3 -9 0 -9 5 0
10 14 15 33 12 4 0 7 3 7 9 0 5 7 7 15 3 10 -3 15 -1 13 7 -2 7 3 15 10 17 6
3 12 -2 12 -11 0 -9 5 -16 11 -16 6 0 8 10 5 23 -3 12 -3 16 0 10 8 -19 17
-16 33 10 13 20 13 21 -2 8 -10 -8 -17 -9 -17 -3 0 7 -10 8 -29 2 -16 -4 -32
-5 -36 -2 -3 4 -10 0 -15 -8 -7 -11 -10 -12 -10 -2 0 10 -4 10 -16 -2 -8 -9
-21 -16 -27 -15 -9 0 -8 2 1 6 17 7 15 23 -3 23 -8 0 -15 6 -15 14 0 9 12 13
39 11 31 -2 38 1 34 13 -4 10 -1 13 8 10 8 -3 13 -11 12 -17 -2 -6 2 -11 7
-11 12 0 12 3 4 24 -3 9 -15 16 -26 16 -11 0 -16 5 -13 10 4 7 -3 8 -20 4 -34
-8 -31 15 4 27 14 6 20 5 16 -1 -3 -6 1 -10 10 -10 9 0 14 4 11 9 -8 12 20 22
40 14 9 -3 20 0 25 8 8 12 11 12 20 -1 9 -12 10 -12 5 4 -5 15 -2 17 14 13 11
-3 20 -1 20 4 0 5 -4 9 -10 9 -5 0 -10 6 -10 14 0 8 -6 16 -12 19 -7 3 11 4
39 3 35 -1 54 3 57 11 3 7 12 13 20 13 8 0 17 9 21 19 7 22 77 53 99 45 8 -3
23 -1 33 5 10 6 13 11 6 11 -7 0 -10 7 -7 15 4 8 1 15 -5 15 -6 0 -11 4 -11 8
0 10 164 52 203 52 37 0 83 30 65 41 -9 6 -4 9 15 9 15 0 27 5 27 11 0 6 8 8
19 4 11 -3 22 -1 26 5 3 5 11 10 18 10 6 0 2 -7 -9 -15 -10 -8 -14 -15 -9 -16
53 -6 55 -6 44 7 -13 15 -4 34 16 34 8 0 18 15 23 33 5 17 14 31 21 30 6 -2
11 5 11 15 0 9 4 13 8 7 12 -17 35 -17 29 -1 -3 8 -1 32 5 53 11 36 12 37 19
13 6 -22 7 -20 9 15 2 36 3 38 11 15 6 -17 7 -8 3 31 -4 43 -1 59 10 69 14 11
16 9 16 -16 0 -46 11 -78 21 -62 6 9 9 1 10 -22 1 -30 3 -26 15 25 7 33 14 76
15 95 1 30 3 28 11 -19 7 -38 13 -50 19 -40z m-194 -63 c-3 -7 -5 -2 -5 12 0
14 2 19 5 13 2 -7 2 -19 0 -25z m-50 -135 c-3 -10 -5 -4 -5 12 0 17 2 24 5 18
2 -7 2 -21 0 -30z m1028 -12 c-3 -6 -11 -11 -16 -11 -5 0 -4 6 3 14 14 16 24
13 13 -3z m-1222 -88 c-13 -2 -23 -9 -23 -14 0 -5 -16 -9 -36 -9 -22 0 -33 4
-29 10 4 6 14 8 23 6 10 -3 24 -1 32 4 8 5 24 9 35 8 17 -1 17 -1 -2 -5z
m-678 -403 c3 -5 1 -10 -4 -10 -6 0 -11 5 -11 10 0 6 2 10 4 10 3 0 8 -4 11
-10z m-25 -4 c0 -2 -7 -7 -16 -10 -8 -3 -12 -2 -9 4 6 10 25 14 25 6z m468
-40 c-7 -8 -15 -12 -17 -11 -5 6 10 25 20 25 5 0 4 -6 -3 -14z m2387 -56 c3
-5 1 -10 -4 -10 -6 0 -11 5 -11 10 0 6 2 10 4 10 3 0 8 -4 11 -10z m40 -50 c3
-5 1 -10 -4 -10 -6 0 -11 5 -11 10 0 6 2 10 4 10 3 0 8 -4 11 -10z m-1968
-112 c-3 -8 -6 -5 -6 6 -1 11 2 17 5 13 3 -3 4 -12 1 -19z m0 -100 c-2 -13 -4
-3 -4 22 0 25 2 35 4 23 2 -13 2 -33 0 -45z m-20 -90 c-3 -8 -6 -5 -6 6 -1 11
2 17 5 13 3 -3 4 -12 1 -19z m30 -430 c-3 -7 -5 -2 -5 12 0 14 2 19 5 13 2 -7
2 -19 0 -25z m0 -50 c-3 -8 -6 -5 -6 6 -1 11 2 17 5 13 3 -3 4 -12 1 -19z
m-20 -155 c-3 -10 -5 -2 -5 17 0 19 2 27 5 18 2 -10 2 -26 0 -35z m10 -95 c-3
-8 -6 -5 -6 6 -1 11 2 17 5 13 3 -3 4 -12 1 -19z m1548 -12 c0 -25 -49 -84
-111 -132 -64 -50 -71 -51 -25 -1 24 25 47 44 51 42 10 -6 75 63 67 71 -5 6 9
44 16 44 2 0 3 -11 2 -24z m-1538 -68 c-2 -13 -4 -3 -4 22 0 25 2 35 4 23 2
-13 2 -33 0 -45z m0 -115 c-3 -10 -5 -4 -5 12 0 17 2 24 5 18 2 -7 2 -21 0
-30z m1263 -77 c0 -3 -4 -8 -10 -11 -5 -3 -10 -1 -10 4 0 6 5 11 10 11 6 0 10
-2 10 -4z m-1605 -216 c3 -5 -1 -10 -9 -10 -8 0 -18 5 -21 10 -3 6 1 10 9 10
8 0 18 -4 21 -10z m1056 -83 c-10 -9 -11 -8 -5 6 3 10 9 15 12 12 3 -3 0 -11
-7 -18z m-973 -124 c2 -7 -3 -13 -12 -13 -9 0 -16 4 -16 8 0 5 -15 7 -32 6
-30 -3 -31 -3 -8 5 33 12 62 9 68 -6z m659 -185 c-2 -13 -4 -5 -4 17 -1 22 1
32 4 23 2 -10 2 -28 0 -40z m-554 15 c-7 -2 -21 -2 -30 0 -10 3 -4 5 12 5 17
0 24 -2 18 -5z m574 -25 c-3 -7 -5 -2 -5 12 0 14 2 19 5 13 2 -7 2 -19 0 -25z
m-20 -185 c-2 -21 -4 -6 -4 32 0 39 2 55 4 38 2 -18 2 -50 0 -70z m-80 55 c-3
-8 -6 -5 -6 6 -1 11 2 17 5 13 3 -3 4 -12 1 -19z m-330 -80 c-2 -13 -4 -3 -4
22 0 25 2 35 4 23 2 -13 2 -33 0 -45z m20 -315 c-3 -10 -5 -2 -5 17 0 19 2 27
5 18 2 -10 2 -26 0 -35z m302 -205 c-2 -120 -2 -121 -10 -48 -7 67 -2 170 7
170 2 0 3 -55 3 -122z m-292 5 c-3 -10 -5 -4 -5 12 0 17 2 24 5 18 2 -7 2 -21
0 -30z m270 -165 c-2 -24 -4 -7 -4 37 0 44 2 63 4 43 2 -21 2 -57 0 -80z m80
-15 c-3 -10 -5 -4 -5 12 0 17 2 24 5 18 2 -7 2 -21 0 -30z m-50 -10 c-3 -10
-5 -4 -5 12 0 17 2 24 5 18 2 -7 2 -21 0 -30z m10 -75 c-2 -13 -4 -5 -4 17 -1
22 1 32 4 23 2 -10 2 -28 0 -40z m-340 -25 c-3 -10 -5 -2 -5 17 0 19 2 27 5
18 2 -10 2 -26 0 -35z m10 -95 c-2 -13 -4 -3 -4 22 0 25 2 35 4 23 2 -13 2
-33 0 -45z m290 -140 c-2 -24 -4 -5 -4 42 0 47 2 66 4 43 2 -24 2 -62 0 -85z
m-280 45 c-2 -16 -4 -5 -4 22 0 28 2 40 4 28 2 -13 2 -35 0 -50z m260 -40 c-2
-21 -4 -4 -4 37 0 41 2 58 4 38 2 -21 2 -55 0 -75z m40 -145 c-3 -8 -6 -5 -6
6 -1 11 2 17 5 13 3 -3 4 -12 1 -19z m-50 -330 c-3 -7 -5 -2 -5 12 0 14 2 19
5 13 2 -7 2 -19 0 -25z m-237 -33 c0 -19 -4 -35 -8 -35 -4 0 -6 16 -4 35 2 19
6 35 8 35 2 0 4 -16 4 -35z m297 -47 c-2 -13 -4 -5 -4 17 -1 22 1 32 4 23 2
-10 2 -28 0 -40z m-50 -25 c-3 -10 -5 -4 -5 12 0 17 2 24 5 18 2 -7 2 -21 0
-30z m-10 -95 c-3 -7 -5 -2 -5 12 0 14 2 19 5 13 2 -7 2 -19 0 -25z m-20 0
c-3 -8 -6 -5 -6 6 -1 11 2 17 5 13 3 -3 4 -12 1 -19z m0 -55 c-3 -10 -5 -4 -5
12 0 17 2 24 5 18 2 -7 2 -21 0 -30z m-10 -95 c-2 -13 -4 -5 -4 17 -1 22 1 32
4 23 2 -10 2 -28 0 -40z m-10 -95 c-3 -10 -5 -4 -5 12 0 17 2 24 5 18 2 -7 2
-21 0 -30z m-200 -95 c-3 -8 -6 -5 -6 6 -1 11 2 17 5 13 3 -3 4 -12 1 -19z"/>
<path d="M1697 5060 c-3 -11 -1 -23 4 -26 5 -3 9 6 9 20 0 31 -6 34 -13 6z"/>
<path d="M1600 4999 c0 -5 5 -7 10 -4 6 3 10 8 10 11 0 2 -4 4 -10 4 -5 0 -10
-5 -10 -11z"/>
<path d="M1548 4953 c7 -3 16 -2 19 1 4 3 -2 6 -13 5 -11 0 -14 -3 -6 -6z"/>
<path d="M2360 4926 c0 -2 9 -6 20 -9 11 -3 18 -1 14 4 -5 9 -34 13 -34 5z"/>
<path d="M2840 4925 c0 -10 29 -24 34 -17 3 6 -3 12 -14 15 -11 3 -20 4 -20 2z"/>
<path d="M1280 4880 c8 -5 20 -10 25 -10 6 0 3 5 -5 10 -8 5 -19 10 -25 10 -5
0 -3 -5 5 -10z"/>
<path d="M2330 4823 c-14 -3 -29 -8 -34 -13 -7 -7 19 -4 89 13 16 4 14 5 -5 4
-14 0 -36 -2 -50 -4z"/>
<path d="M3165 4740 c-3 -6 1 -7 9 -4 18 7 21 14 7 14 -6 0 -13 -4 -16 -10z"/>
<path d="M2448 4733 c-37 -6 -36 -23 2 -23 17 0 30 4 30 9 0 5 10 12 23 14 20
4 20 4 -3 4 -14 0 -37 -2 -52 -4z"/>
<path d="M990 4708 c0 -10 9 -9 35 2 17 8 16 8 -7 7 -16 -1 -28 -5 -28 -9z"/>
<path d="M1968 4703 c7 -3 16 -2 19 1 4 3 -2 6 -13 5 -11 0 -14 -3 -6 -6z"/>
<path d="M2094 4682 c3 -6 0 -12 -6 -15 -7 -2 10 -11 37 -18 l50 -13 -45 -9
-45 -10 40 -12 40 -12 -30 -4 -30 -4 -2 -313 c-1 -173 -4 -317 -7 -320 -3 -3
-6 19 -7 49 0 30 -4 63 -8 74 -9 22 -22 -134 -19 -224 l2 -56 6 70 c4 39 4 -9
2 -105 -3 -96 -6 -220 -8 -275 -1 -55 -4 -126 -6 -157 -3 -31 -1 -55 3 -52 15
9 31 -67 24 -113 -4 -31 -3 -43 4 -38 6 3 12 21 12 38 2 32 2 32 6 3 4 -24 8
-27 29 -23 20 3 24 1 20 -12 -5 -12 -2 -11 9 3 8 10 12 23 9 27 -3 5 6 5 20
-1 14 -5 26 -6 26 -1 0 5 16 12 35 15 20 4 33 11 30 15 -6 11 23 23 36 15 5
-3 9 3 9 12 0 10 3 14 7 11 3 -4 12 1 20 11 14 16 14 16 9 -1 -3 -11 -2 -16 4
-12 6 3 10 14 10 23 0 15 2 15 10 2 8 -13 10 -13 10 1 0 9 12 24 26 34 15 9
23 12 19 5 -4 -6 12 -2 34 10 27 13 39 25 35 33 -5 9 -4 9 5 1 14 -13 43 -2
74 26 9 8 32 29 51 45 20 17 56 49 81 72 25 24 46 42 48 41 5 -6 46 29 41 35
-3 3 3 3 14 0 14 -3 24 2 31 15 6 11 33 38 60 60 28 22 47 43 43 47 -4 3 -2 5
3 3 18 -5 109 79 171 157 32 41 62 75 67 75 4 0 5 5 2 10 -3 6 2 10 12 10 13
0 14 3 5 8 -9 6 -6 15 14 33 14 13 27 22 29 19 1 -3 16 8 31 24 16 16 22 26
14 21 -9 -5 -8 0 4 13 11 12 21 20 24 17 3 -2 13 11 23 30 21 39 23 49 10 41
-5 -3 -11 1 -14 8 -3 8 -1 16 4 18 9 3 -90 113 -101 113 -14 0 -118 94 -112
101 4 5 -1 2 -10 -5 -10 -7 -19 -11 -19 -7 -1 3 -2 9 -3 14 0 4 -11 17 -23 30
-13 12 -23 27 -23 33 0 8 -4 8 -13 1 -8 -7 -18 -6 -32 5 -20 15 -19 15 4 10
14 -4 20 -2 15 3 -5 5 -27 11 -49 13 -21 3 -41 10 -43 16 -2 6 -12 11 -23 11
-11 0 -22 7 -25 15 -4 8 -13 15 -21 15 -8 0 -27 6 -41 13 -72 37 -104 50 -117
50 -8 0 -12 4 -10 8 6 10 -37 19 -63 14 -12 -2 -22 -1 -22 3 0 4 -10 7 -22 8
-13 0 -70 11 -128 23 -58 12 -139 24 -180 26 -41 1 -106 6 -144 10 -47 5 -67
4 -62 -3z m59 -9 c-7 -2 -19 -2 -25 0 -7 3 -2 5 12 5 14 0 19 -2 13 -5z m320
-40 c-7 -2 -19 -2 -25 0 -7 3 -2 5 12 5 14 0 19 -2 13 -5z m42 -77 c115 -21
193 -47 312 -103 195 -91 280 -162 335 -279 37 -78 34 -92 -34 -191 -52 -75
-215 -223 -498 -449 -202 -163 -283 -214 -334 -214 -37 0 -85 48 -96 95 -5 22
-10 198 -10 390 -1 205 -5 342 -10 330 -7 -17 -9 -16 -9 10 0 17 4 90 9 163
10 148 27 192 92 247 29 25 38 27 93 22 33 -3 101 -12 150 -21z m-393 -11 c-2
-14 -6 -25 -8 -25 -2 0 -4 11 -4 25 0 14 4 25 9 25 4 0 6 -11 3 -25z m85 -22
c-3 -10 -5 -4 -5 12 0 17 2 24 5 18 2 -7 2 -21 0 -30z m823 -99 c0 -2 -9 0
-20 6 -11 6 -20 13 -20 16 0 2 9 0 20 -6 11 -6 20 -13 20 -16z m-913 -76 c-3
-8 -6 -5 -6 6 -1 11 2 17 5 13 3 -3 4 -12 1 -19z m4 -79 c-5 -13 -10 -19 -10
-12 -1 15 10 45 15 40 3 -2 0 -15 -5 -28z m1117 -44 c-3 -3 -9 2 -12 12 -6 14
-5 15 5 6 7 -7 10 -15 7 -18z m-1108 -67 c0 -18 -2 -20 -9 -8 -6 8 -7 18 -5
22 9 14 14 9 14 -14z m7 -225 c-2 -16 -4 -5 -4 22 0 28 2 40 4 28 2 -13 2 -35
0 -50z m-40 -195 c-3 -7 -5 -2 -5 12 0 14 2 19 5 13 2 -7 2 -19 0 -25z m38
-346 c-10 -11 -11 4 -6 88 l6 85 3 -84 c2 -46 0 -86 -3 -89z m415 -46 c0 -3
-4 -8 -10 -11 -5 -3 -10 -1 -10 4 0 6 5 11 10 11 6 0 10 -2 10 -4z m-50 -21
c0 -2 -10 -9 -22 -15 -22 -11 -22 -10 -4 4 21 17 26 19 26 11z m-295 -114 c-3
-6 -11 -11 -16 -11 -5 0 -4 6 3 14 14 16 24 13 13 -3z"/>
<path d="M923 4643 c-13 -2 -23 -9 -23 -14 0 -6 -8 -5 -20 1 -20 11 -30 -3
-10 -15 6 -4 8 -10 5 -15 -9 -14 15 -23 29 -11 7 6 16 9 19 6 4 -3 5 -2 3 1
-3 3 7 17 22 30 27 23 23 26 -25 17z"/>
<path d="M1008 4643 c6 -2 18 -2 25 0 6 3 1 5 -13 5 -14 0 -19 -2 -12 -5z"/>
<path d="M3260 4645 c0 -2 10 -10 23 -16 20 -11 21 -11 8 4 -13 16 -31 23 -31
12z"/>
<path d="M3380 4590 c0 -6 12 -15 26 -20 36 -14 39 -13 19 10 -19 21 -45 27
-45 10z"/>
<path d="M2068 4563 c7 -3 16 -2 19 1 4 3 -2 6 -13 5 -11 0 -14 -3 -6 -6z"/>
<path d="M3140 4545 c0 -5 5 -17 10 -25 5 -8 10 -10 10 -5 0 6 -5 17 -10 25
-5 8 -10 11 -10 5z"/>
<path d="M2071 4518 c1 -13 5 -34 9 -48 7 -20 8 -16 9 23 1 26 -3 47 -9 47 -5
0 -10 -10 -9 -22z"/>
<path d="M3457 4499 c7 -7 15 -10 18 -7 3 3 -2 9 -12 12 -14 6 -15 5 -6 -5z"/>
<path d="M2084 4250 c0 -58 1 -81 3 -52 2 28 2 76 0 105 -2 28 -3 5 -3 -53z"/>
<path d="M1780 4301 c0 -11 5 -23 10 -26 6 -3 10 3 10 14 0 11 -4 23 -10 26
-5 3 -10 -3 -10 -14z"/>
<path d="M3670 4285 c0 -7 30 -13 34 -7 3 4 -4 9 -15 9 -10 1 -19 0 -19 -2z"/>
<path d="M1798 4230 c-3 -22 0 -42 8 -55 13 -19 14 -19 13 5 -1 14 -4 39 -8
55 l-7 30 -6 -35z"/>
<path d="M3470 4209 c0 -18 2 -19 15 -5 8 8 15 17 15 20 0 3 -7 6 -15 6 -9 0
-15 -9 -15 -21z"/>
<path d="M1683 4135 c0 -44 2 -61 4 -37 2 23 2 59 0 80 -2 20 -4 1 -4 -43z"/>
<path d="M3727 3986 c-4 -10 -1 -13 8 -9 8 3 12 9 9 14 -7 12 -11 11 -17 -5z"/>
<path d="M1692 3910 c0 -14 2 -19 5 -12 2 6 2 18 0 25 -3 6 -5 1 -5 -13z"/>
<path d="M3509 3803 l-24 -28 28 24 c25 23 32 31 24 31 -2 0 -14 -12 -28 -27z"/>
<path d="M1750 3718 c0 -51 3 -68 10 -58 13 20 13 130 0 130 -6 0 -10 -31 -10
-72z"/>
<path d="M3486 3754 c-3 -9 -6 -23 -6 -31 0 -13 2 -13 16 -2 9 8 12 15 6 17
-6 2 -8 10 -5 18 3 8 3 14 0 14 -3 0 -8 -7 -11 -16z"/>
<path d="M1782 3720 c0 -19 2 -27 5 -17 2 9 2 25 0 35 -3 9 -5 1 -5 -18z"/>
<path d="M3429 3713 c-13 -16 -12 -17 4 -4 9 7 17 15 17 17 0 8 -8 3 -21 -13z"/>
<path d="M1791 3654 c0 -11 3 -14 6 -6 3 7 2 16 -1 19 -3 4 -6 -2 -5 -13z"/>
<path d="M2985 3660 c-3 -5 -1 -10 4 -10 6 0 11 5 11 10 0 6 -2 10 -4 10 -3 0
-8 -4 -11 -10z"/>
<path d="M1692 3600 c0 -19 2 -27 5 -17 2 9 2 25 0 35 -3 9 -5 1 -5 -18z"/>
<path d="M2880 3580 c-9 -6 -10 -10 -3 -10 6 0 15 5 18 10 8 12 4 12 -15 0z"/>
<path d="M3070 3542 c0 -6 -11 -14 -24 -18 -13 -3 -29 -18 -37 -32 -7 -15 -33
-46 -58 -69 -25 -22 -43 -44 -40 -48 4 -3 28 15 53 42 26 26 63 65 83 85 20
21 33 41 30 45 -4 3 -7 1 -7 -5z"/>
<path d="M3279 3533 c-13 -16 -12 -17 4 -4 16 13 21 21 13 21 -2 0 -10 -8 -17
-17z"/>
<path d="M1774 3362 l-1 -157 9 148 c6 83 6 153 2 157 -5 5 -10 -61 -10 -148z"/>
<path d="M1992 3330 c0 -19 2 -27 5 -17 2 9 2 25 0 35 -3 9 -5 1 -5 -18z"/>
<path d="M2957 3296 c-48 -29 -61 -43 -22 -23 31 16 74 46 65 46 -3 0 -22 -10
-43 -23z"/>
<path d="M2062 3190 c0 -14 2 -19 5 -12 2 6 2 18 0 25 -3 6 -5 1 -5 -13z"/>
<path d="M1968 3145 c-3 -24 0 -35 9 -35 8 0 13 13 13 35 0 19 -4 35 -9 35 -5
0 -11 -16 -13 -35z"/>
<path d="M2903 3173 c8 -7 -34 -39 -46 -35 -5 1 -5 -3 -1 -9 5 -9 2 -10 -9 -6
-17 7 -33 -8 -19 -17 12 -7 93 54 86 65 -3 5 -8 9 -11 9 -4 0 -3 -3 0 -7z"/>
<path d="M2090 3110 c-20 -11 -28 -19 -19 -20 9 0 27 9 40 20 30 24 24 24 -21
0z"/>
<path d="M2494 3114 c-18 -14 -18 -15 4 -4 12 6 22 13 22 15 0 8 -5 6 -26 -11z"/>
<path d="M2760 3120 c-9 -6 -10 -10 -3 -10 6 0 15 5 18 10 8 12 4 12 -15 0z"/>
<path d="M1970 3090 c0 -5 5 -10 10 -10 6 0 10 5 10 10 0 6 -4 10 -10 10 -5 0
-10 -4 -10 -10z"/>
<path d="M2647 3057 c-3 -8 3 -14 16 -15 12 0 17 2 12 6 -6 4 -13 11 -16 15
-4 4 -9 2 -12 -6z"/>
<path d="M2721 3051 c-18 -14 -21 -20 -11 -26 9 -6 11 -4 5 5 -6 10 -4 12 9 7
11 -5 15 -3 10 5 -5 7 -2 9 9 5 11 -4 14 -2 10 9 -6 17 -3 17 -32 -5z"/>
<path d="M1970 3044 c0 -3 7 -12 15 -20 16 -17 18 -14 9 10 -6 15 -24 23 -24
10z"/>
<path d="M2775 3040 c-3 -5 1 -10 10 -10 9 0 13 5 10 10 -3 6 -8 10 -10 10 -2
0 -7 -4 -10 -10z"/>
<path d="M2624 2958 c-4 -6 -3 -8 4 -4 5 3 12 1 14 -6 3 -8 6 -9 11 -1 4 6 0
13 -8 17 -8 3 -17 0 -21 -6z"/>
<path d="M2567 2939 c7 -7 15 -10 18 -7 3 3 -2 9 -12 12 -14 6 -15 5 -6 -5z"/>
<path d="M2255 2889 c-11 -16 -1 -19 13 -3 7 8 8 14 3 14 -5 0 -13 -5 -16 -11z"/>
<path d="M2208 2812 c5 -15 4 -15 -12 -3 -14 12 -19 12 -29 1 -9 -10 -9 -11 1
-6 18 10 38 -4 21 -15 -10 -6 -10 -9 -2 -9 6 0 18 9 26 20 8 11 16 19 18 17 2
-1 3 0 1 2 -1 3 -9 6 -17 7 -9 1 -11 -4 -7 -14z"/>
<path d="M2140 2770 c-8 -5 -10 -10 -5 -10 6 0 17 5 25 10 8 5 11 10 5 10 -5
0 -17 -5 -25 -10z"/>
<path d="M1040 2750 c-13 -9 -13 -10 0 -10 8 0 22 5 30 10 13 9 13 10 0 10 -8
0 -22 -5 -30 -10z"/>
<path d="M1528 2753 c7 -3 16 -2 19 1 4 3 -2 6 -13 5 -11 0 -14 -3 -6 -6z"/>
<path d="M2105 2750 c-3 -5 -1 -10 4 -10 6 0 11 5 11 10 0 6 -2 10 -4 10 -3 0
-8 -4 -11 -10z"/>
<path d="M1580 2580 c0 -5 5 -10 11 -10 5 0 7 5 4 10 -3 6 -8 10 -11 10 -2 0
-4 -4 -4 -10z"/>
<path d="M1540 2570 c0 -5 5 -10 11 -10 5 0 7 5 4 10 -3 6 -8 10 -11 10 -2 0
-4 -4 -4 -10z"/>
<path d="M1821 2344 c0 -11 3 -14 6 -6 3 7 2 16 -1 19 -3 4 -6 -2 -5 -13z"/>
<path d="M1713 2295 c0 -27 2 -38 4 -22 2 15 2 37 0 50 -2 12 -4 0 -4 -28z"/>
<path d="M1917 2255 c-4 -22 -6 -96 -5 -165 l1 -125 9 140 c9 155 8 216 -5
150z"/>
<path d="M1812 2195 c0 -16 2 -22 5 -12 2 9 2 23 0 30 -3 6 -5 -1 -5 -18z"/>
<path d="M1711 2144 c0 -11 3 -14 6 -6 3 7 2 16 -1 19 -3 4 -6 -2 -5 -13z"/>
<path d="M1802 2050 c0 -14 2 -19 5 -12 2 6 2 18 0 25 -3 6 -5 1 -5 -13z"/>
<path d="M1932 2040 c0 -14 2 -19 5 -12 2 6 2 18 0 25 -3 6 -5 1 -5 -13z"/>
<path d="M1913 1640 c0 -36 2 -50 4 -32 2 17 2 47 0 65 -2 17 -4 3 -4 -33z"/>
<path d="M1710 1656 c0 -19 3 -37 8 -40 4 -2 6 13 4 35 -5 48 -12 51 -12 5z"/>
<path d="M1703 1510 c0 -25 2 -35 4 -22 2 12 2 32 0 45 -2 12 -4 2 -4 -23z"/>
<path d="M1857 1441 c-3 -47 -5 -87 -2 -89 12 -13 22 50 16 108 l-7 65 -7 -84z"/>
<path d="M1733 1455 c0 -33 2 -45 4 -27 2 18 2 45 0 60 -2 15 -4 0 -4 -33z"/>
<path d="M1706 1433 c10 -40 14 -41 14 -5 0 18 -5 32 -10 32 -6 0 -8 -11 -4
-27z"/>
<path d="M1720 1371 c0 -6 4 -13 10 -16 6 -3 7 1 4 9 -7 18 -14 21 -14 7z"/>
<path d="M1861 1324 c0 -11 3 -14 6 -6 3 7 2 16 -1 19 -3 4 -6 -2 -5 -13z"/>
<path d="M1822 1300 c0 -19 2 -27 5 -17 2 9 2 25 0 35 -3 9 -5 1 -5 -18z"/>
<path d="M1850 1245 c0 -32 2 -56 5 -53 7 7 9 97 2 105 -4 3 -7 -20 -7 -52z"/>
<path d="M1883 1230 c0 -30 2 -43 4 -27 2 15 2 39 0 55 -2 15 -4 2 -4 -28z"/>
<path d="M1867 1129 c4 -13 8 -18 11 -10 2 7 -1 18 -6 23 -8 8 -9 4 -5 -13z"/>
<path d="M1843 1030 c0 -36 2 -50 4 -32 2 17 2 47 0 65 -2 17 -4 3 -4 -33z"/>
<path d="M1873 1010 c0 -25 2 -35 4 -22 2 12 2 32 0 45 -2 12 -4 2 -4 -23z"/>
<path d="M1712 980 c0 -19 2 -27 5 -17 2 9 2 25 0 35 -3 9 -5 1 -5 -18z"/>
<path d="M1702 910 c0 -19 2 -27 5 -17 2 9 2 25 0 35 -3 9 -5 1 -5 -18z"/>
<path d="M1892 920 c0 -14 2 -19 5 -12 2 6 2 18 0 25 -3 6 -5 1 -5 -13z"/>
<path d="M1762 640 c0 -19 2 -27 5 -17 2 9 2 25 0 35 -3 9 -5 1 -5 -18z"/>
<path d="M1715 651 c-3 -5 -1 -12 5 -16 5 -3 10 1 10 9 0 18 -6 21 -15 7z"/>
<path d="M1720 570 c0 -5 5 -10 11 -10 5 0 7 5 4 10 -3 6 -8 10 -11 10 -2 0
-4 -4 -4 -10z"/>
<path d="M1692 500 c0 -14 2 -19 5 -12 2 6 2 18 0 25 -3 6 -5 1 -5 -13z"/>
<path d="M1812 465 c0 -16 2 -22 5 -12 2 9 2 23 0 30 -3 6 -5 -1 -5 -18z"/>
<path d="M1769 455 c-2 -16 -2 -52 1 -80 l6 -50 7 35 c4 19 4 55 -1 80 -8 41
-9 43 -13 15z"/>
<path d="M1822 405 c0 -16 2 -22 5 -12 2 9 2 23 0 30 -3 6 -5 -1 -5 -18z"/>
<path d="M4032 2976 c-51 -7 -95 -16 -99 -19 -3 -3 -3 -13 0 -21 8 -20 37 -10
38 13 0 13 2 13 6 1 3 -8 11 -18 17 -22 8 -6 6 -11 -4 -18 -8 -5 -13 -10 -10
-11 3 0 19 -3 35 -5 48 -7 58 -13 51 -30 -5 -14 -4 -15 9 -4 8 7 24 10 35 7
11 -3 18 -2 15 3 -7 11 178 20 190 9 5 -5 0 -9 -15 -10 -23 0 -23 -1 8 -17 26
-13 40 -14 72 -5 32 8 38 8 30 -2 -6 -7 -27 -16 -48 -20 -30 -6 -33 -9 -18
-14 19 -7 19 -8 1 -15 -16 -6 -17 -9 -5 -16 12 -8 11 -10 -5 -10 -15 0 -16 -3
-7 -9 14 -9 -78 -31 -129 -31 -15 0 -31 -5 -34 -11 -5 -7 13 -8 57 -3 34 4 60
4 57 0 -3 -3 -39 -10 -80 -14 -67 -6 -74 -9 -80 -32 -6 -20 -7 -21 -8 -5 -1
11 -6 27 -12 35 -7 11 -9 2 -6 -35 2 -27 2 -42 0 -32 -9 37 -34 8 -32 -36 1
-17 3 -15 9 8 4 17 6 -24 5 -95 -1 -69 2 -146 7 -172 7 -37 6 -51 -6 -71 -16
-23 -16 -123 -1 -226 4 -29 3 -32 -5 -16 -10 20 -7 -140 7 -355 6 -93 -2 -114
-17 -48 -9 39 -16 -100 -13 -277 l2 -110 -15 95 c-8 52 -19 104 -24 115 -4 11
-11 27 -13 35 -3 8 -6 -23 -7 -70 l-2 -85 -9 60 c-10 71 -28 117 -41 109 -5
-3 -6 5 -4 18 3 12 2 66 -3 118 l-9 95 2 -107 c1 -60 -2 -108 -6 -108 -14 0
-10 228 5 233 9 3 9 9 -1 29 -8 13 -14 51 -14 84 0 32 -8 75 -16 94 -12 26
-17 68 -17 168 0 103 -3 135 -14 141 -11 7 -13 32 -9 118 2 59 2 97 0 83 l-4
-25 -12 30 c-9 20 -10 41 -4 63 6 22 5 52 -3 89 l-13 55 -57 -6 c-40 -5 -60
-3 -65 5 -5 9 -1 10 14 7 12 -4 22 -2 22 2 0 5 8 10 17 12 9 2 -44 2 -118 2
-73 -1 -126 1 -117 3 10 3 15 10 11 19 -4 12 0 13 20 5 17 -7 32 -6 50 4 14 7
28 11 31 7 3 -3 6 -1 6 4 0 6 -16 10 -35 11 -19 1 -32 -3 -29 -8 6 -11 -3 -11
-31 0 -18 7 -16 9 12 15 18 4 37 5 43 1 5 -3 10 -1 10 4 0 6 10 11 23 12 12 0
16 3 9 6 -10 4 -10 8 0 21 12 14 10 14 -12 2 -15 -8 -25 -9 -28 -2 -1 5 -13 8
-25 6 -19 -4 -19 -3 3 7 34 16 47 19 102 22 27 1 48 6 48 11 0 5 19 6 43 2 29
-4 38 -3 27 4 -12 8 -10 10 10 11 14 1 32 3 40 4 8 1 23 3 33 4 10 0 17 10 18
24 l0 22 9 -22 c5 -13 11 -23 12 -23 2 0 4 20 6 45 3 44 2 45 -25 40 -15 -3
-76 -14 -135 -25 -149 -26 -205 -53 -264 -129 -26 -34 -53 -61 -61 -61 -8 0
-31 9 -51 19 -59 30 -117 34 -249 17 -67 -9 -157 -16 -201 -16 -101 0 -154
-25 -196 -93 -41 -66 -41 -131 0 -222 l32 -70 6 -287 c6 -333 -1 -550 -20
-576 -11 -15 -16 -13 -50 27 -61 70 -128 87 -228 57 -99 -30 -166 -105 -166
-187 1 -102 103 -199 211 -199 48 0 124 30 163 65 21 19 40 35 43 35 3 0 19
-12 37 -27 17 -14 45 -32 63 -40 47 -19 196 -16 353 8 234 35 235 35 269 6
119 -100 293 -23 293 129 0 118 -106 186 -219 139 -50 -21 -71 -19 -116 12
-33 23 -53 28 -116 31 -42 2 -80 8 -85 12 -9 9 -9 228 0 266 6 24 48 44 93 44
44 1 109 37 131 72 31 51 27 110 -11 152 -41 47 -84 72 -154 90 -32 9 -60 18
-62 20 -3 2 -7 37 -10 78 -5 74 6 125 29 133 132 46 192 85 224 147 8 15 21
28 28 28 8 0 45 -13 84 -30 38 -16 88 -32 112 -36 29 -5 44 -13 51 -28 12 -29
38 -182 50 -296 5 -52 16 -156 24 -230 9 -74 20 -196 26 -270 6 -74 15 -155
20 -180 5 -25 11 -54 13 -65 45 -248 78 -339 132 -363 39 -18 70 -14 102 13
31 26 52 90 52 159 0 19 9 44 19 57 22 27 25 23 36 -43 7 -48 48 -96 100 -119
51 -23 79 -23 132 0 101 46 112 205 19 276 -59 45 -124 45 -191 -1 -30 -20
-40 -23 -47 -12 -10 13 -2 699 10 1002 8 180 -3 159 121 229 41 23 83 54 94
68 30 41 33 109 8 161 -33 69 -65 82 -201 85 -63 1 -157 -4 -208 -11z m81 -83
c-7 -2 -19 -2 -25 0 -7 3 -2 5 12 5 14 0 19 -2 13 -5z m310 -80 c-7 -2 -19 -2
-25 0 -7 3 -2 5 12 5 14 0 19 -2 13 -5z m-1107 -98 c-4 -11 1 -15 17 -15 12 0
29 -5 37 -11 11 -7 6 -8 -19 -4 -23 5 -31 4 -27 -4 4 -6 19 -12 34 -12 27 -2
27 -2 2 -6 -37 -7 -49 -23 -18 -23 35 0 59 -10 52 -21 -3 -5 -14 -9 -25 -9
-11 0 -22 -7 -25 -15 -4 -8 -14 -15 -24 -15 -10 0 -20 -7 -24 -15 -3 -10 -19
-15 -45 -15 -22 0 -41 -5 -43 -12 -3 -8 -28 -13 -71 -13 -37 0 -68 -4 -68 -10
-6 -40 -2 -192 4 -188 4 2 7 -8 7 -24 0 -15 0 -35 1 -43 1 -8 -2 -23 -6 -32
-4 -11 -3 -18 4 -18 6 0 11 -13 11 -30 0 -16 -4 -30 -10 -30 -5 0 -10 -12 -9
-27 0 -16 3 -22 6 -15 4 9 8 10 18 2 10 -8 36 -8 96 1 64 10 84 10 87 1 2 -7
13 -12 23 -12 37 0 8 -20 -29 -21 l-37 -1 31 -7 c17 -4 37 -11 44 -16 9 -5 11
-4 6 3 -4 7 -3 12 3 12 5 0 13 -4 16 -10 3 -5 16 -10 28 -11 12 0 16 -3 9 -6
-10 -4 -10 -8 0 -20 11 -14 9 -15 -19 -11 -18 2 -30 1 -27 -4 8 -13 -10 -9
-25 5 -8 7 -11 7 -8 1 4 -7 -10 -16 -38 -23 -54 -13 -58 -14 -50 -1 3 6 -1 7
-9 4 -9 -3 -16 -10 -16 -14 0 -5 -24 -12 -52 -16 -45 -6 -49 -8 -28 -15 24 -7
24 -7 -5 -9 -16 -1 -24 -4 -16 -7 9 -4 10 -8 2 -12 -6 -4 -13 -29 -16 -57 l-4
-49 9 44 c11 52 26 72 16 22 -3 -18 -6 -59 -7 -90 0 -41 -3 -51 -9 -36 -6 13
-8 -4 -7 -52 2 -75 16 -91 18 -20 1 26 3 33 6 18 7 -34 -7 -112 -18 -106 -5 4
-9 -5 -9 -19 0 -14 5 -26 10 -26 6 0 10 -9 10 -21 0 -14 5 -19 13 -16 8 3 20
1 28 -4 11 -7 8 -9 -9 -9 -13 0 -20 -4 -17 -10 4 -6 11 -8 16 -4 6 3 24 0 40
-6 23 -10 33 -10 42 -1 8 8 6 11 -9 12 -11 0 -14 3 -6 6 7 3 24 -3 38 -12 17
-11 42 -16 72 -14 77 4 95 1 88 -16 -3 -8 2 -21 10 -30 14 -13 12 -14 -18 -10
-32 5 -32 5 -8 -6 l25 -12 -25 -5 c-23 -4 -23 -5 -5 -12 14 -5 -2 -10 -50 -15
-55 -6 -65 -10 -45 -16 19 -6 11 -8 -30 -8 -30 0 -93 -6 -140 -12 -62 -8 -85
-8 -88 0 -10 29 -62 -16 -63 -55 l-1 -29 -7 30 c-3 17 -10 29 -14 28 -14 -5
-72 -1 -59 4 17 7 15 23 -3 23 -18 0 -20 17 -2 23 7 2 -1 11 -18 20 l-30 16
26 1 c19 0 28 7 32 21 4 14 11 20 21 16 17 -7 27 13 25 51 -1 24 -3 23 -10 -8
-5 -21 -7 42 -5 155 2 105 0 159 -4 120 -3 -38 -7 -54 -8 -35 -1 19 -5 60 -9
90 -7 54 -7 54 -15 20 -5 -25 -6 -21 -2 17 7 77 -5 133 -30 143 -19 8 -18 9 9
11 l30 1 -30 8 c-25 6 -19 15 8 11 4 0 7 6 7 14 0 9 -9 15 -22 16 l-23 0 23 9
c20 8 22 16 22 78 0 38 3 137 7 220 l6 151 -39 -4 c-33 -4 -35 -3 -9 3 28 8
29 8 8 16 -23 7 -26 25 -8 38 6 4 -2 8 -17 8 -15 0 -30 5 -34 11 -5 9 1 10 20
5 17 -4 25 -3 22 3 -4 5 -1 13 5 17 8 4 7 9 -2 15 -11 7 -10 9 4 9 11 0 15 4
11 12 -4 6 -3 8 2 5 6 -3 16 -1 24 4 13 8 13 10 0 19 -12 8 -10 10 10 11 14 1
28 1 33 0 4 0 7 4 7 10 0 5 4 8 9 5 5 -3 12 4 16 17 6 20 8 20 12 3 4 -16 12
-17 56 -12 67 8 201 19 252 20 27 1 39 -3 38 -11 -4 -18 14 -16 20 1 3 8 1 17
-6 20 -7 2 -4 5 7 5 12 1 16 -4 12 -14z m-531 -185 c4 -6 -9 -10 -32 -9 -34 1
-35 2 -13 9 35 11 38 11 45 0z m1072 -542 c-3 -8 -6 -5 -6 6 -1 11 2 17 5 13
3 -3 4 -12 1 -19z m10 -90 c-3 -7 -5 -2 -5 12 0 14 2 19 5 13 2 -7 2 -19 0
-25z m241 -223 l-1 -80 -7 70 c-4 39 -7 97 -7 130 l0 60 7 -50 c5 -27 8 -86 8
-130z m-1241 -52 c-3 -10 -5 -4 -5 12 0 17 2 24 5 18 2 -7 2 -21 0 -30z m1200
-115 c-3 -7 -5 -2 -5 12 0 14 2 19 5 13 2 -7 2 -19 0 -25z m-1574 10 c4 -10 8
-10 15 1 8 11 18 11 60 0 28 -7 49 -16 46 -21 -3 -4 0 -8 6 -8 24 0 40 -30 40
-73 0 -61 -8 -77 -36 -77 -13 0 -24 -4 -24 -9 0 -14 -89 -41 -96 -30 -3 6 -13
9 -22 8 -32 -4 -67 22 -80 59 -29 81 -28 87 23 126 52 39 61 42 68 24z m798
-15 c-19 -4 -21 -7 -10 -14 11 -7 8 -9 -9 -9 -13 0 -21 4 -17 9 3 5 -5 12 -17
14 -13 2 0 4 27 4 28 0 39 -2 26 -4z m796 -15 c-3 -8 -6 -5 -6 6 -1 11 2 17 5
13 3 -3 4 -12 1 -19z m-420 -78 c29 -59 28 -78 -2 -92 -14 -6 -25 -18 -25 -25
0 -24 -128 -15 -157 11 -27 23 -32 86 -8 106 9 7 13 15 10 18 -13 13 46 29
100 28 l60 -1 22 -45z m420 -22 c-3 -8 -6 -5 -6 6 -1 11 2 17 5 13 3 -3 4 -12
1 -19z m340 -3 c8 -8 21 -15 29 -15 10 0 14 -13 14 -45 0 -32 -4 -45 -14 -45
-7 0 -21 -11 -30 -25 -13 -20 -25 -25 -61 -25 -36 0 -50 6 -75 30 -31 30 -43
90 -17 90 9 0 9 2 -1 8 -8 6 -1 15 25 30 42 24 104 22 130 -3z m-1057 -29 c0
-9 -40 -13 -46 -5 -3 5 6 9 20 9 14 0 26 -2 26 -4z m-383 -58 c-3 -8 -6 -5 -6
6 -1 11 2 17 5 13 3 -3 4 -12 1 -19z m1040 -35 c-3 -10 -5 -4 -5 12 0 17 2 24
5 18 2 -7 2 -21 0 -30z m248 -31 c-3 -3 -11 0 -18 7 -9 10 -8 11 6 5 10 -3 15
-9 12 -12z m-238 -84 c-2 -13 -4 -5 -4 17 -1 22 1 32 4 23 2 -10 2 -28 0 -40z"/>
<path d="M3338 2623 c6 -2 18 -2 25 0 6 3 1 5 -13 5 -14 0 -19 -2 -12 -5z"/>
<path d="M2866 2168 c-5 -36 -6 -72 -3 -80 6 -18 20 93 15 123 -2 13 -8 -6
-12 -43z"/>
<path d="M3184 2068 c10 -6 22 -6 26 -2 5 5 -3 10 -18 11 -22 1 -24 0 -8 -9z"/>
<path d="M3270 1380 l-25 -8 28 -1 c15 -1 27 4 27 9 0 6 -1 10 -2 9 -2 -1 -14
-5 -28 -9z"/>
<path d="M2627 1403 c-4 -3 -7 -13 -7 -22 1 -13 3 -13 11 2 11 19 8 33 -4 20z"/>
<path d="M3671 1344 c0 -11 3 -14 6 -6 3 7 2 16 -1 19 -3 4 -6 -2 -5 -13z"/>
<path d="M3940 2897 c0 -10 8 -17 18 -17 9 0 13 4 7 8 -5 4 -13 11 -17 16 -5
5 -8 2 -8 -7z"/>
<path d="M4188 2863 c7 -3 16 -2 19 1 4 3 -2 6 -13 5 -11 0 -14 -3 -6 -6z"/>
<path d="M4002 2650 c0 -14 2 -19 5 -12 2 6 2 18 0 25 -3 6 -5 1 -5 -13z"/>
<path d="M3880 2532 c0 -40 4 -72 10 -72 8 0 3 129 -6 139 -2 2 -4 -28 -4 -67z"/>
<path d="M3962 2060 c0 -14 2 -19 5 -12 2 6 2 18 0 25 -3 6 -5 1 -5 -13z"/>
<path d="M4041 1954 c0 -11 3 -14 6 -6 3 7 2 16 -1 19 -3 4 -6 -2 -5 -13z"/>
<path d="M3952 1930 c0 -14 2 -19 5 -12 2 6 2 18 0 25 -3 6 -5 1 -5 -13z"/>
</g>
</svg>
