<?xml version="1.0" standalone="no"?>
<!DOCTYPE svg PUBLIC "-//W3C//DTD SVG 20010904//EN"
 "http://www.w3.org/TR/2001/REC-SVG-20010904/DTD/svg10.dtd">
<svg version="1.0" xmlns="http://www.w3.org/2000/svg"
 width="192.000000pt" height="192.000000pt" viewBox="0 0 192.000000 192.000000"
 preserveAspectRatio="xMidYMid meet">

<g transform="translate(0.000000,192.000000) scale(0.100000,-0.100000)"
fill="#000000" stroke="none">
<path d="M903 1825 c-7 -8 -13 -19 -13 -25 0 -5 -7 -10 -15 -10 -8 0 -15 -7
-15 -15 0 -8 -5 -15 -11 -15 -14 0 -39 -25 -39 -39 0 -6 -7 -11 -15 -11 -11 0
-15 -11 -15 -40 0 -29 4 -40 15 -40 8 0 15 -7 15 -15 0 -8 5 -15 10 -15 6 0
10 -7 10 -15 0 -8 7 -15 15 -15 8 0 15 -4 15 -10 0 -5 7 -10 15 -10 8 0 15 -7
15 -15 0 -8 5 -15 10 -15 6 0 10 -30 10 -70 0 -40 -4 -70 -10 -70 -5 0 -10 7
-10 15 0 8 -7 15 -15 15 -8 0 -15 7 -15 15 0 8 -7 15 -15 15 -8 0 -15 7 -15
15 0 9 -9 15 -25 15 -21 0 -25 -5 -25 -30 0 -20 5 -30 15 -30 8 0 15 -5 15
-11 0 -14 25 -39 39 -39 6 0 11 -7 11 -15 0 -8 7 -15 15 -15 8 0 15 -7 15 -15
0 -8 5 -15 10 -15 6 0 10 -11 10 -25 0 -14 -4 -25 -10 -25 -5 0 -10 7 -10 15
0 10 -10 15 -30 15 -27 0 -30 -3 -30 -30 0 -20 5 -30 15 -30 8 0 15 -4 15 -10
0 -5 7 -10 15 -10 8 0 15 -7 15 -15 0 -8 5 -15 10 -15 6 0 10 -33 10 -80 0
-47 -4 -80 -10 -80 -5 0 -10 5 -10 10 0 6 -13 10 -30 10 -20 0 -30 5 -30 15 0
9 -9 15 -25 15 -25 0 -25 1 -25 80 0 79 0 80 -25 80 -24 0 -25 -3 -25 -55 0
-42 -3 -55 -15 -55 -8 0 -15 7 -15 15 0 8 -7 15 -15 15 -12 0 -15 13 -15 55 0
42 -3 55 -15 55 -12 0 -15 13 -15 55 l0 55 -40 0 c-29 0 -40 -4 -40 -15 0 -8
7 -15 15 -15 11 0 15 -11 15 -40 0 -29 4 -40 15 -40 9 0 15 -9 15 -25 0 -21
-5 -25 -30 -25 -16 0 -30 5 -30 10 0 6 -11 10 -25 10 -16 0 -25 6 -25 15 0 8
-7 15 -15 15 -11 0 -15 11 -15 40 0 29 -4 40 -15 40 -12 0 -15 13 -15 55 0 30
-4 55 -10 55 -5 0 -10 7 -10 15 0 8 -7 15 -15 15 -8 0 -15 5 -15 10 0 6 -7 10
-15 10 -8 0 -15 -4 -15 -10 0 -5 -18 -10 -40 -10 -29 0 -40 -4 -40 -15 0 -12
-13 -15 -55 -15 -42 0 -55 -3 -55 -15 0 -8 -4 -15 -10 -15 -5 0 -10 -7 -10
-15 0 -8 5 -15 10 -15 6 0 10 -22 10 -50 0 -38 4 -50 15 -50 12 0 15 -13 15
-55 0 -42 3 -55 15 -55 8 0 15 -7 15 -15 0 -8 7 -15 15 -15 8 0 15 7 15 15 0
11 11 15 40 15 29 0 40 4 40 15 0 12 16 15 80 15 64 0 80 -3 80 -15 0 -8 7
-15 15 -15 8 0 15 -7 15 -15 0 -8 -7 -15 -15 -15 -8 0 -15 -7 -15 -15 0 -11
-11 -15 -40 -15 l-40 0 0 -40 c0 -22 5 -40 10 -40 6 0 10 7 10 15 0 11 12 15
45 15 33 0 45 4 45 15 0 11 11 15 40 15 22 0 40 5 40 10 0 6 5 10 10 10 6 0
10 -11 10 -25 0 -20 -5 -25 -25 -25 -22 0 -25 -4 -25 -40 0 -29 4 -40 15 -40
11 0 15 -11 15 -40 l0 -40 40 0 c38 0 40 -2 40 -30 l0 -30 -70 0 c-56 0 -70 3
-70 15 0 9 -9 15 -25 15 -16 0 -25 6 -25 15 0 10 -10 15 -30 15 -16 0 -30 5
-30 10 0 6 -4 10 -10 10 -5 0 -10 -18 -10 -40 l0 -40 40 0 c22 0 40 -4 40 -10
0 -5 11 -10 25 -10 16 0 25 -6 25 -15 0 -8 -4 -15 -10 -15 -5 0 -10 -7 -10
-15 0 -8 -7 -15 -15 -15 -8 0 -15 -7 -15 -15 0 -12 -16 -15 -80 -15 -64 0 -80
3 -80 15 0 10 -10 15 -30 15 -20 0 -30 5 -30 15 0 11 -11 15 -40 15 l-40 0 0
-40 c0 -29 -4 -40 -15 -40 -11 0 -15 -11 -15 -40 0 -22 -4 -40 -10 -40 -5 0
-10 -18 -10 -40 0 -29 -4 -40 -15 -40 -8 0 -15 -7 -15 -15 0 -9 9 -15 25 -15
16 0 25 -6 25 -15 0 -12 13 -15 55 -15 42 0 55 -3 55 -15 0 -12 13 -15 55 -15
30 0 55 -4 55 -10 0 -5 7 -10 15 -10 9 0 15 9 15 25 0 14 5 25 10 25 6 0 10
38 10 95 l0 95 30 0 c20 0 30 5 30 15 0 9 9 15 25 15 14 0 25 5 25 10 0 6 7
10 15 10 12 0 15 -14 15 -65 0 -51 -3 -65 -15 -65 -8 0 -15 -7 -15 -15 0 -10
10 -15 30 -15 20 0 30 5 30 15 0 8 5 15 10 15 6 0 10 28 10 65 0 51 3 65 15
65 8 0 15 7 15 15 0 8 -7 15 -15 15 -8 0 -15 7 -15 15 0 10 10 15 30 15 20 0
30 5 30 15 0 8 7 15 15 15 11 0 15 -12 15 -45 0 -33 -4 -45 -15 -45 -8 0 -15
-4 -15 -10 0 -5 18 -10 40 -10 l40 0 0 65 c0 51 3 65 15 65 8 0 15 7 15 15 0
8 5 15 10 15 6 0 10 7 10 15 0 10 10 15 30 15 17 0 30 5 30 10 0 6 5 10 10 10
6 0 10 -33 10 -80 0 -47 -4 -80 -10 -80 -5 0 -10 -7 -10 -15 0 -8 -7 -15 -15
-15 -8 0 -15 -4 -15 -10 0 -5 -7 -10 -15 -10 -10 0 -15 -10 -15 -30 0 -27 3
-30 30 -30 20 0 30 5 30 15 0 8 5 15 10 15 6 0 10 -11 10 -25 0 -14 -4 -25
-10 -25 -5 0 -10 -7 -10 -15 0 -8 -7 -15 -15 -15 -8 0 -15 -7 -15 -15 0 -8 -5
-15 -11 -15 -14 0 -39 -25 -39 -39 0 -6 -7 -11 -15 -11 -10 0 -15 -10 -15 -30
0 -25 4 -30 25 -30 16 0 25 6 25 15 0 8 7 15 15 15 8 0 15 7 15 15 0 8 7 15
15 15 8 0 15 7 15 15 0 8 5 15 10 15 6 0 10 -30 10 -70 0 -40 -4 -70 -10 -70
-5 0 -10 -7 -10 -15 0 -8 -7 -15 -15 -15 -8 0 -15 -4 -15 -10 0 -5 -7 -10 -15
-10 -8 0 -15 -7 -15 -15 0 -8 -4 -15 -10 -15 -5 0 -10 -7 -10 -15 0 -8 -7 -15
-15 -15 -11 0 -15 -11 -15 -40 0 -29 4 -40 15 -40 8 0 15 -5 15 -11 0 -14 25
-39 39 -39 6 0 11 -7 11 -15 0 -8 7 -15 15 -15 8 0 15 -7 15 -15 0 -8 5 -15
10 -15 6 0 10 -7 10 -15 0 -10 10 -15 30 -15 20 0 30 5 30 15 0 8 7 15 15 15
8 0 15 7 15 15 0 8 5 15 10 15 6 0 10 7 10 15 0 8 7 15 15 15 8 0 15 5 15 10
0 6 7 10 15 10 8 0 15 7 15 15 0 8 5 15 10 15 6 0 10 18 10 40 0 22 -4 40 -10
40 -5 0 -10 7 -10 15 0 8 -7 15 -15 15 -8 0 -15 7 -15 15 0 8 -5 15 -11 15
-14 0 -39 25 -39 39 0 6 -7 11 -15 11 -12 0 -15 14 -15 70 0 56 3 70 15 70 8
0 15 -7 15 -15 0 -8 5 -15 10 -15 6 0 10 -7 10 -15 0 -8 7 -15 15 -15 8 0 15
-7 15 -15 0 -9 9 -15 25 -15 21 0 25 5 25 30 0 17 -4 30 -10 30 -5 0 -10 7
-10 15 0 8 -7 15 -15 15 -8 0 -15 5 -15 10 0 6 -7 10 -15 10 -8 0 -15 7 -15
15 0 8 -4 15 -10 15 -5 0 -10 7 -10 15 0 8 -7 15 -15 15 -9 0 -15 9 -15 25 0
16 6 25 15 25 8 0 15 -7 15 -15 0 -9 9 -15 25 -15 21 0 25 5 25 30 0 17 -5 30
-11 30 -14 0 -39 25 -39 39 0 6 -7 11 -15 11 -12 0 -15 16 -15 80 0 64 3 80
15 80 8 0 15 -4 15 -10 0 -5 11 -10 25 -10 21 0 25 -5 25 -30 0 -20 5 -30 15
-30 9 0 15 -9 15 -25 0 -14 5 -25 10 -25 6 0 10 -18 10 -40 l0 -40 40 0 c22 0
40 5 40 10 0 6 -4 10 -10 10 -5 0 -10 14 -10 30 0 20 -5 30 -15 30 -8 0 -15 7
-15 15 0 9 9 15 25 15 16 0 25 -6 25 -15 0 -10 10 -15 30 -15 20 0 30 -5 30
-15 0 -8 -7 -15 -15 -15 -8 0 -15 -7 -15 -15 0 -8 7 -15 15 -15 12 0 15 -14
15 -65 0 -51 3 -65 15 -65 8 0 15 -7 15 -15 0 -9 9 -15 25 -15 16 0 25 6 25
15 0 8 -7 15 -15 15 -12 0 -15 14 -15 65 0 51 3 65 15 65 8 0 15 -4 15 -10 0
-5 11 -10 25 -10 16 0 25 -6 25 -15 0 -10 10 -15 30 -15 l30 0 0 -95 c0 -78 3
-95 15 -95 9 0 15 -9 15 -25 0 -14 5 -25 10 -25 6 0 10 5 10 10 0 6 25 10 55
10 42 0 55 3 55 15 0 12 13 15 55 15 42 0 55 3 55 15 0 9 9 15 25 15 16 0 25
6 25 15 0 8 -4 15 -10 15 -5 0 -10 18 -10 40 0 29 -4 40 -15 40 -11 0 -15 11
-15 40 0 29 -4 40 -15 40 -11 0 -15 11 -15 40 l0 40 -40 0 c-29 0 -40 -4 -40
-15 0 -9 -9 -15 -25 -15 -16 0 -25 -6 -25 -15 0 -12 -16 -15 -85 -15 -69 0
-85 3 -85 15 0 8 -4 15 -10 15 -5 0 -10 7 -10 15 0 8 -7 15 -15 15 -8 0 -15 7
-15 15 0 9 9 15 25 15 14 0 25 5 25 10 0 6 20 10 45 10 l45 0 0 40 c0 29 -4
40 -15 40 -8 0 -15 -4 -15 -10 0 -5 -13 -10 -30 -10 -20 0 -30 -5 -30 -15 0
-9 -9 -15 -25 -15 -16 0 -25 -6 -25 -15 0 -12 -14 -15 -70 -15 l-70 0 0 30 c0
27 3 30 30 30 28 0 30 2 30 40 0 29 4 40 15 40 11 0 15 11 15 40 0 38 -2 40
-30 40 -20 0 -30 5 -30 15 0 8 7 15 15 15 8 0 15 5 15 10 0 6 7 10 15 10 8 0
15 -4 15 -10 0 -5 18 -10 40 -10 29 0 40 -4 40 -15 0 -11 11 -15 40 -15 29 0
40 -4 40 -15 0 -8 7 -15 15 -15 11 0 15 11 15 40 l0 40 -45 0 c-33 0 -45 4
-45 15 0 8 -4 15 -10 15 -5 0 -10 7 -10 15 0 8 5 15 10 15 6 0 10 7 10 15 0
12 16 15 85 15 69 0 85 -3 85 -15 0 -11 11 -15 40 -15 29 0 40 -4 40 -15 0 -8
5 -15 10 -15 6 0 10 7 10 15 0 8 7 15 15 15 12 0 15 13 15 55 0 42 3 55 15 55
11 0 15 12 15 50 0 38 4 50 15 50 8 0 15 7 15 15 0 8 -7 15 -15 15 -8 0 -15 7
-15 15 0 12 -13 15 -55 15 -42 0 -55 3 -55 15 0 11 -11 15 -40 15 -22 0 -40 5
-40 10 0 15 -19 12 -36 -4 -8 -8 -14 -19 -14 -25 0 -6 -7 -11 -15 -11 -12 0
-15 -13 -15 -55 0 -42 -3 -55 -15 -55 -11 0 -15 -11 -15 -40 0 -29 -4 -40 -15
-40 -8 0 -15 -7 -15 -15 0 -9 -9 -15 -25 -15 -14 0 -25 -4 -25 -10 0 -5 -11
-10 -25 -10 -20 0 -25 5 -25 25 0 14 5 25 10 25 6 0 10 18 10 40 0 29 4 40 15
40 8 0 15 7 15 15 0 11 -11 15 -40 15 l-40 0 0 -55 c0 -42 -3 -55 -15 -55 -12
0 -15 -13 -15 -55 0 -42 -3 -55 -15 -55 -8 0 -15 -7 -15 -15 0 -8 -4 -15 -10
-15 -5 0 -10 20 -10 45 0 25 5 45 10 45 6 0 10 5 10 10 0 6 -11 10 -25 10 -14
0 -25 -4 -25 -10 0 -5 -7 -10 -15 -10 -12 0 -15 -14 -15 -70 0 -68 -1 -70 -25
-70 -16 0 -25 -6 -25 -15 0 -9 -9 -15 -25 -15 -14 0 -25 -4 -25 -10 0 -5 -7
-10 -15 -10 -12 0 -15 16 -15 80 0 64 3 80 15 80 8 0 15 5 15 11 0 14 25 39
39 39 6 0 11 14 11 30 0 25 -4 30 -25 30 -16 0 -25 -6 -25 -15 0 -8 -7 -15
-15 -15 -9 0 -15 9 -15 25 0 16 6 25 15 25 8 0 15 7 15 15 0 8 5 15 10 15 6 0
10 7 10 15 0 8 7 15 15 15 8 0 15 5 15 10 0 6 7 10 15 10 8 0 15 7 15 15 0 8
5 15 10 15 6 0 10 14 10 30 0 25 -4 30 -25 30 -16 0 -25 -6 -25 -15 0 -8 -7
-15 -15 -15 -8 0 -15 -7 -15 -15 0 -8 -4 -15 -10 -15 -5 0 -10 -7 -10 -15 0
-8 -7 -15 -15 -15 -12 0 -15 14 -15 70 0 56 3 70 15 70 8 0 15 5 15 11 0 14
25 39 39 39 6 0 11 7 11 15 0 8 7 15 15 15 8 0 15 7 15 15 0 8 5 15 10 15 6 0
10 18 10 40 0 22 -4 40 -10 40 -5 0 -10 7 -10 15 0 8 -7 15 -15 15 -8 0 -15 5
-15 10 0 6 -7 10 -15 10 -8 0 -15 7 -15 15 0 8 -4 15 -10 15 -5 0 -10 7 -10
15 0 8 -7 15 -15 15 -8 0 -15 5 -15 10 0 15 -53 11 -67 -5z m67 -75 c0 -5 7
-10 15 -10 8 0 15 -7 15 -15 0 -8 5 -15 10 -15 6 0 10 -7 10 -15 0 -8 7 -15
15 -15 8 0 15 -4 15 -10 0 -5 -7 -10 -15 -10 -8 0 -15 -7 -15 -15 0 -8 -4 -15
-10 -15 -5 0 -10 -7 -10 -15 0 -8 -7 -15 -15 -15 -8 0 -15 -7 -15 -15 0 -10
-10 -15 -30 -15 -20 0 -30 5 -30 15 0 8 -4 15 -10 15 -5 0 -10 7 -10 15 0 8
-7 15 -15 15 -8 0 -15 7 -15 15 0 8 -7 15 -15 15 -8 0 -15 5 -15 10 0 6 7 10
15 10 8 0 15 7 15 15 0 8 7 15 15 15 8 0 15 5 15 10 0 20 25 39 53 40 15 0 27
-4 27 -10z m-570 -380 c0 -29 4 -40 15 -40 11 0 15 -11 15 -40 l0 -40 -40 0
c-29 0 -40 -4 -40 -15 0 -11 -11 -15 -40 -15 -38 0 -40 2 -40 30 0 20 -5 30
-15 30 -11 0 -15 12 -15 50 0 47 2 50 25 50 16 0 25 6 25 15 0 12 13 15 55 15
l55 0 0 -40z m1190 25 c0 -9 9 -15 25 -15 23 0 25 -3 25 -50 0 -27 -4 -50 -10
-50 -5 0 -10 -13 -10 -30 0 -28 -2 -30 -40 -30 -29 0 -40 4 -40 15 0 11 -11
15 -40 15 l-40 0 0 40 c0 22 5 40 10 40 6 0 10 18 10 40 l0 40 55 0 c42 0 55
-3 55 -15z m-810 -375 c0 -5 11 -10 25 -10 16 0 25 -6 25 -15 0 -8 7 -15 15
-15 8 0 15 -7 15 -15 0 -8 -7 -15 -15 -15 -8 0 -15 -7 -15 -15 0 -12 -14 -15
-65 -15 -51 0 -65 3 -65 15 0 10 -10 15 -30 15 -20 0 -30 5 -30 15 0 8 -4 15
-10 15 -5 0 -10 7 -10 15 0 9 9 15 25 15 14 0 25 5 25 10 0 6 25 10 55 10 30
0 55 -4 55 -10z m400 0 c0 -5 14 -10 30 -10 20 0 30 -5 30 -15 0 -8 -7 -15
-15 -15 -8 0 -15 -7 -15 -15 0 -9 -9 -15 -25 -15 -16 0 -25 -6 -25 -15 0 -12
-13 -15 -55 -15 -42 0 -55 3 -55 15 0 8 -7 15 -15 15 -8 0 -15 7 -15 15 0 8 7
15 15 15 8 0 15 7 15 15 0 9 9 15 25 15 14 0 25 5 25 10 0 6 18 10 40 10 22 0
40 -4 40 -10z m-830 -325 c0 -9 9 -15 25 -15 25 0 25 -1 25 -80 l0 -80 -55 0
c-42 0 -55 3 -55 15 0 11 -11 15 -40 15 -36 0 -40 3 -40 25 0 16 6 25 15 25
11 0 15 11 15 40 0 29 4 40 15 40 8 0 15 7 15 15 0 11 11 15 40 15 29 0 40 -4
40 -15z m1270 0 c0 -8 5 -15 10 -15 6 0 10 -18 10 -40 0 -29 4 -40 15 -40 9 0
15 -9 15 -25 0 -22 -4 -25 -40 -25 -29 0 -40 -4 -40 -15 0 -12 -13 -15 -55
-15 l-55 0 0 80 0 80 30 0 c20 0 30 5 30 15 0 11 11 15 40 15 29 0 40 -4 40
-15z m-650 -350 c0 -8 7 -15 15 -15 8 0 15 -7 15 -15 0 -8 5 -15 10 -15 6 0
10 -7 10 -15 0 -8 7 -15 15 -15 8 0 15 -4 15 -10 0 -5 -7 -10 -15 -10 -8 0
-15 -7 -15 -15 0 -8 -4 -15 -10 -15 -5 0 -10 -7 -10 -15 0 -8 -7 -15 -15 -15
-8 0 -15 -4 -15 -10 0 -5 -12 -10 -26 -10 -26 0 -54 20 -54 39 0 6 -7 11 -15
11 -8 0 -15 7 -15 15 0 8 -7 15 -15 15 -8 0 -15 5 -15 10 0 6 7 10 15 10 8 0
15 7 15 15 0 8 7 15 15 15 8 0 15 7 15 15 0 8 5 15 10 15 6 0 10 7 10 15 0 10
10 15 30 15 20 0 30 -5 30 -15z"/>
</g>
</svg>
