<?xml version="1.0" standalone="no"?>
<!DOCTYPE svg PUBLIC "-//W3C//DTD SVG 20010904//EN"
 "http://www.w3.org/TR/2001/REC-SVG-20010904/DTD/svg10.dtd">
<svg version="1.0" xmlns="http://www.w3.org/2000/svg"
 width="192.000000pt" height="192.000000pt" viewBox="0 0 192.000000 192.000000"
 preserveAspectRatio="xMidYMid meet">

<g transform="translate(0.000000,192.000000) scale(0.100000,-0.100000)"
fill="#000000" stroke="none">
<path d="M610 1800 c0 -28 3 -30 35 -30 32 0 35 2 35 30 0 28 -3 30 -35 30
-32 0 -35 -2 -35 -30z"/>
<path d="M860 1815 c0 -8 -7 -15 -15 -15 -8 0 -15 -7 -15 -15 0 -8 7 -15 15
-15 8 0 15 -7 15 -15 0 -8 7 -15 15 -15 11 0 15 12 15 45 0 33 -4 45 -15 45
-8 0 -15 -7 -15 -15z"/>
<path d="M1390 1770 c0 -27 3 -30 30 -30 27 0 30 3 30 30 0 27 -3 30 -30 30
-27 0 -30 -3 -30 -30z"/>
<path d="M1050 1710 c0 -27 3 -30 30 -30 27 0 30 3 30 30 0 27 -3 30 -30 30
-27 0 -30 -3 -30 -30z"/>
<path d="M1300 1725 c0 -8 -9 -15 -20 -15 -11 0 -20 -7 -20 -15 0 -10 11 -15
35 -15 32 0 35 2 35 30 0 20 -5 30 -15 30 -8 0 -15 -7 -15 -15z"/>
<path d="M550 1680 c0 -29 -2 -30 -45 -30 -45 0 -45 0 -45 -35 0 -32 2 -35 30
-35 23 0 30 4 30 20 0 11 7 20 15 20 8 0 15 7 15 15 0 10 10 15 30 15 27 0 30
3 30 30 0 27 -3 30 -30 30 -27 0 -30 -3 -30 -30z"/>
<path d="M890 1680 c0 -28 3 -30 35 -30 32 0 35 2 35 30 0 28 -3 30 -35 30
-32 0 -35 -2 -35 -30z"/>
<path d="M1450 1680 c0 -20 5 -30 15 -30 10 0 15 10 15 30 0 20 -5 30 -15 30
-10 0 -15 -10 -15 -30z"/>
<path d="M680 1615 c0 -32 2 -35 30 -35 20 0 30 -5 30 -15 0 -8 7 -15 15 -15
10 0 15 11 15 35 0 24 -5 35 -15 35 -8 0 -15 7 -15 15 0 10 -10 15 -30 15 -28
0 -30 -3 -30 -35z"/>
<path d="M1020 1635 c0 -8 -7 -15 -15 -15 -8 0 -15 -9 -15 -20 0 -11 7 -20 15
-20 8 0 15 -7 15 -15 0 -10 10 -15 30 -15 20 0 30 5 30 15 0 8 7 15 15 15 8 0
15 9 15 20 0 11 -7 20 -15 20 -8 0 -15 7 -15 15 0 10 -10 15 -30 15 -20 0 -30
-5 -30 -15z"/>
<path d="M1200 1600 c0 -38 4 -50 15 -50 8 0 15 7 15 15 0 8 7 15 15 15 10 0
15 11 15 35 0 32 -2 35 -30 35 -29 0 -30 -1 -30 -50z"/>
<path d="M1360 1635 c0 -8 -7 -15 -15 -15 -8 0 -15 -9 -15 -20 0 -11 7 -20 15
-20 8 0 15 -7 15 -15 0 -8 7 -15 15 -15 8 0 15 7 15 15 0 8 7 15 15 15 8 0 15
9 15 20 0 11 -7 20 -15 20 -8 0 -15 7 -15 15 0 8 -7 15 -15 15 -8 0 -15 -7
-15 -15z"/>
<path d="M800 1550 c0 -27 3 -30 30 -30 27 0 30 3 30 30 0 27 -3 30 -30 30
-27 0 -30 -3 -30 -30z"/>
<path d="M370 1535 c0 -8 -7 -15 -15 -15 -10 0 -15 -10 -15 -30 0 -29 2 -30
45 -30 43 0 45 1 45 30 0 20 5 30 15 30 8 0 15 7 15 15 0 11 -12 15 -45 15
-33 0 -45 -4 -45 -15z"/>
<path d="M1300 1535 c0 -8 -9 -15 -20 -15 -16 0 -20 -7 -20 -30 0 -23 4 -30
20 -30 11 0 20 -7 20 -15 0 -8 7 -15 15 -15 8 0 15 7 15 15 0 8 7 15 15 15 10
0 15 10 15 30 0 20 -5 30 -15 30 -8 0 -15 7 -15 15 0 8 -7 15 -15 15 -8 0 -15
-7 -15 -15z"/>
<path d="M920 1505 c0 -8 -7 -15 -15 -15 -8 0 -15 -7 -15 -15 0 -12 14 -15 65
-15 l65 0 0 30 c0 29 -1 30 -50 30 -38 0 -50 -4 -50 -15z"/>
<path d="M1140 1505 c0 -8 -7 -15 -15 -15 -10 0 -15 -10 -15 -30 0 -27 3 -30
30 -30 29 0 30 2 30 45 0 33 -4 45 -15 45 -8 0 -15 -7 -15 -15z"/>
<path d="M1450 1490 c0 -20 5 -30 15 -30 8 0 15 -7 15 -15 0 -8 7 -15 15 -15
11 0 15 12 15 45 0 43 -1 45 -30 45 -27 0 -30 -3 -30 -30z"/>
<path d="M1200 1415 c0 -10 10 -15 30 -15 20 0 30 5 30 15 0 10 -10 15 -30 15
-20 0 -30 -5 -30 -15z"/>
<path d="M1420 1415 c0 -8 -7 -15 -15 -15 -10 0 -15 -10 -15 -30 0 -27 3 -30
30 -30 20 0 30 5 30 15 0 8 7 15 15 15 8 0 15 7 15 15 0 8 -7 15 -15 15 -8 0
-15 7 -15 15 0 8 -7 15 -15 15 -8 0 -15 -7 -15 -15z"/>
<path d="M340 1275 c0 -24 5 -35 15 -35 8 0 15 -7 15 -15 0 -8 7 -15 15 -15 8
0 15 7 15 15 0 8 7 15 15 15 10 0 15 11 15 35 0 35 0 35 -45 35 -45 0 -45 0
-45 -35z"/>
<path d="M960 1290 c0 -13 -7 -20 -20 -20 -11 0 -20 -7 -20 -15 0 -8 9 -15 20
-15 11 0 20 -7 20 -15 0 -8 7 -15 15 -15 8 0 15 7 15 15 0 8 7 15 15 15 10 0
15 11 15 35 0 32 -2 35 -30 35 -23 0 -30 -4 -30 -20z"/>
<path d="M1300 1260 c0 -38 4 -50 15 -50 8 0 15 7 15 15 0 8 7 15 15 15 10 0
15 11 15 35 0 32 -2 35 -30 35 -29 0 -30 -1 -30 -50z"/>
<path d="M1450 1275 c0 -24 5 -35 15 -35 8 0 15 -7 15 -15 0 -8 7 -15 15 -15
8 0 15 7 15 15 0 8 7 15 15 15 10 0 15 11 15 35 0 35 0 35 -45 35 -45 0 -45 0
-45 -35z"/>
<path d="M580 1255 c0 -8 7 -15 15 -15 8 0 15 7 15 15 0 8 -7 15 -15 15 -8 0
-15 -7 -15 -15z"/>
<path d="M1140 1240 c0 -20 5 -30 15 -30 10 0 15 10 15 30 0 20 -5 30 -15 30
-10 0 -15 -10 -15 -30z"/>
<path d="M300 1150 c0 -23 4 -30 20 -30 16 0 20 7 20 30 0 23 -4 30 -20 30
-16 0 -20 -7 -20 -30z"/>
<path d="M490 1150 c0 -20 5 -30 15 -30 8 0 15 7 15 15 0 8 7 15 15 15 8 0 15
7 15 15 0 10 -10 15 -30 15 -27 0 -30 -3 -30 -30z"/>
<path d="M740 1150 c0 -20 5 -30 15 -30 10 0 15 10 15 30 0 20 -5 30 -15 30
-10 0 -15 -10 -15 -30z"/>
<path d="M1020 1150 c0 -20 5 -30 15 -30 8 0 15 -7 15 -15 0 -8 7 -15 15 -15
8 0 15 7 15 15 0 8 7 15 15 15 10 0 15 10 15 30 0 29 -2 30 -45 30 -43 0 -45
-1 -45 -30z"/>
<path d="M1200 1150 c0 -27 3 -30 30 -30 27 0 30 3 30 30 0 27 -3 30 -30 30
-27 0 -30 -3 -30 -30z"/>
<path d="M1390 1135 c0 -43 1 -45 30 -45 20 0 30 5 30 15 0 8 7 15 15 15 8 0
15 7 15 15 0 8 -7 15 -15 15 -8 0 -15 7 -15 15 0 10 -10 15 -30 15 -29 0 -30
-2 -30 -45z"/>
<path d="M800 1045 c0 -8 -7 -15 -15 -15 -10 0 -15 -11 -15 -35 0 -32 2 -35
30 -35 23 0 30 4 30 20 0 11 7 20 15 20 8 0 15 7 15 15 0 8 -7 15 -15 15 -8 0
-15 7 -15 15 0 8 -7 15 -15 15 -8 0 -15 -7 -15 -15z"/>
<path d="M1140 1030 c0 -29 2 -30 45 -30 43 0 45 1 45 30 0 29 -2 30 -45 30
-43 0 -45 -1 -45 -30z"/>
<path d="M1300 1010 c0 -49 1 -50 30 -50 23 0 30 4 30 20 0 11 7 20 15 20 8 0
15 7 15 15 0 8 -7 15 -15 15 -8 0 -15 7 -15 15 0 10 -10 15 -30 15 -29 0 -30
-1 -30 -50z"/>
<path d="M650 1015 c0 -8 7 -15 15 -15 8 0 15 7 15 15 0 8 -7 15 -15 15 -8 0
-15 -7 -15 -15z"/>
<path d="M520 945 c0 -8 -7 -15 -15 -15 -10 0 -15 -10 -15 -30 0 -27 3 -30 30
-30 20 0 30 5 30 15 0 8 7 15 15 15 8 0 15 7 15 15 0 8 -7 15 -15 15 -8 0 -15
7 -15 15 0 8 -7 15 -15 15 -8 0 -15 -7 -15 -15z"/>
<path d="M1230 945 c0 -8 -7 -15 -15 -15 -8 0 -15 -7 -15 -15 0 -11 12 -15 50
-15 38 0 50 4 50 15 0 8 -9 15 -20 15 -11 0 -20 7 -20 15 0 8 -7 15 -15 15 -8
0 -15 -7 -15 -15z"/>
<path d="M710 885 c0 -43 1 -45 30 -45 20 0 30 5 30 15 0 8 7 15 15 15 8 0 15
7 15 15 0 8 -7 15 -15 15 -8 0 -15 7 -15 15 0 10 -10 15 -30 15 -29 0 -30 -2
-30 -45z"/>
<path d="M340 705 c0 -8 -9 -15 -20 -15 -16 0 -20 -7 -20 -35 0 -33 2 -35 35
-35 28 0 35 4 35 20 0 11 7 20 15 20 8 0 15 7 15 15 0 8 -7 15 -15 15 -8 0
-15 7 -15 15 0 8 -7 15 -15 15 -8 0 -15 -7 -15 -15z"/>
<path d="M490 705 c0 -8 -7 -15 -15 -15 -8 0 -15 -7 -15 -15 0 -10 10 -15 30
-15 23 0 30 -4 30 -20 0 -11 7 -20 15 -20 8 0 15 9 15 20 0 11 7 20 15 20 8 0
15 7 15 15 0 8 -7 15 -15 15 -8 0 -15 7 -15 15 0 10 -10 15 -30 15 -20 0 -30
-5 -30 -15z"/>
<path d="M710 655 c0 -32 2 -35 30 -35 28 0 30 3 30 35 0 32 -2 35 -30 35 -28
0 -30 -3 -30 -35z"/>
<path d="M960 655 c0 -24 5 -35 15 -35 10 0 15 11 15 35 0 24 -5 35 -15 35
-10 0 -15 -11 -15 -35z"/>
<path d="M1050 655 c0 -32 2 -35 30 -35 23 0 30 4 30 20 0 11 7 20 15 20 8 0
15 7 15 15 0 11 -12 15 -45 15 -45 0 -45 0 -45 -35z"/>
<path d="M1230 655 c0 -33 2 -35 35 -35 33 0 35 2 35 35 0 33 -2 35 -35 35
-33 0 -35 -2 -35 -35z"/>
<path d="M1390 675 c0 -8 7 -15 15 -15 8 0 15 -9 15 -20 0 -11 7 -20 15 -20 8
0 15 9 15 20 0 11 7 20 15 20 8 0 15 7 15 15 0 11 -12 15 -45 15 -33 0 -45 -4
-45 -15z"/>
<path d="M400 545 c0 -43 1 -45 30 -45 20 0 30 5 30 15 0 8 7 15 15 15 8 0 15
7 15 15 0 8 -7 15 -15 15 -8 0 -15 7 -15 15 0 10 -10 15 -30 15 -29 0 -30 -2
-30 -45z"/>
<path d="M610 575 c0 -8 -7 -15 -15 -15 -8 0 -15 -7 -15 -15 0 -8 7 -15 15
-15 8 0 15 -7 15 -15 0 -10 11 -15 35 -15 35 0 35 0 35 45 0 45 0 45 -35 45
-24 0 -35 -5 -35 -15z"/>
<path d="M960 560 c0 -20 5 -30 15 -30 8 0 15 -7 15 -15 0 -8 7 -15 15 -15 8
0 15 7 15 15 0 8 7 15 15 15 8 0 15 7 15 15 0 8 -7 15 -15 15 -8 0 -15 7 -15
15 0 10 -10 15 -30 15 -27 0 -30 -3 -30 -30z"/>
<path d="M1200 575 c0 -8 -7 -15 -15 -15 -8 0 -15 -7 -15 -15 0 -8 7 -15 15
-15 8 0 15 -7 15 -15 0 -8 7 -15 15 -15 8 0 15 7 15 15 0 8 7 15 15 15 8 0 15
7 15 15 0 8 -7 15 -15 15 -8 0 -15 7 -15 15 0 8 -7 15 -15 15 -8 0 -15 -7 -15
-15z"/>
<path d="M1360 575 c0 -8 -7 -15 -15 -15 -8 0 -15 -7 -15 -15 0 -11 12 -15 45
-15 43 0 45 1 45 30 0 27 -3 30 -30 30 -20 0 -30 -5 -30 -15z"/>
<path d="M1510 575 c0 -8 -7 -15 -15 -15 -8 0 -15 -7 -15 -15 0 -8 7 -15 15
-15 8 0 15 -7 15 -15 0 -8 7 -15 15 -15 8 0 15 7 15 15 0 8 7 15 15 15 8 0 15
7 15 15 0 8 -7 15 -15 15 -8 0 -15 7 -15 15 0 8 -7 15 -15 15 -8 0 -15 -7 -15
-15z"/>
<path d="M1080 485 c0 -8 -7 -15 -15 -15 -8 0 -15 -7 -15 -15 0 -8 7 -15 15
-15 8 0 15 -7 15 -15 0 -10 10 -15 30 -15 27 0 30 3 30 30 0 20 -5 30 -15 30
-8 0 -15 7 -15 15 0 8 -7 15 -15 15 -8 0 -15 -7 -15 -15z"/>
<path d="M1260 485 c0 -8 -7 -15 -15 -15 -8 0 -15 -7 -15 -15 0 -8 7 -15 15
-15 8 0 15 -7 15 -15 0 -11 12 -15 50 -15 l50 0 0 45 0 45 -50 0 c-38 0 -50
-4 -50 -15z"/>
<path d="M1450 485 c0 -8 -7 -15 -15 -15 -10 0 -15 -10 -15 -30 0 -29 2 -30
45 -30 43 0 45 1 45 30 0 20 -5 30 -15 30 -8 0 -15 7 -15 15 0 8 -7 15 -15 15
-8 0 -15 -7 -15 -15z"/>
<path d="M1640 485 c0 -8 -7 -15 -15 -15 -8 0 -15 -7 -15 -15 0 -8 7 -15 15
-15 8 0 15 -7 15 -15 0 -8 7 -15 15 -15 8 0 15 7 15 15 0 8 7 15 15 15 8 0 15
7 15 15 0 8 -7 15 -15 15 -8 0 -15 7 -15 15 0 8 -7 15 -15 15 -8 0 -15 -7 -15
-15z"/>
<path d="M340 440 c0 -29 2 -30 45 -30 43 0 45 1 45 30 0 29 -2 30 -45 30 -43
0 -45 -1 -45 -30z"/>
<path d="M490 440 c0 -20 5 -30 15 -30 8 0 15 -7 15 -15 0 -8 7 -15 15 -15 8
0 15 7 15 15 0 8 7 15 15 15 10 0 15 10 15 30 0 29 -2 30 -45 30 -43 0 -45 -1
-45 -30z"/>
<path d="M680 455 c0 -8 7 -15 15 -15 8 0 15 -7 15 -15 0 -10 10 -15 30 -15
27 0 30 3 30 30 0 29 -2 30 -45 30 -33 0 -45 -4 -45 -15z"/>
<path d="M830 440 c0 -27 3 -30 30 -30 20 0 30 5 30 15 0 8 7 15 15 15 8 0 15
7 15 15 0 11 -12 15 -45 15 -43 0 -45 -1 -45 -30z"/>
<path d="M270 330 c0 -11 7 -20 15 -20 8 0 15 9 15 20 0 11 -7 20 -15 20 -8 0
-15 -9 -15 -20z"/>
<path d="M580 300 l0 -50 35 0 c24 0 35 5 35 15 0 8 7 15 15 15 8 0 15 7 15
15 0 8 -7 15 -15 15 -8 0 -15 9 -15 20 0 16 -7 20 -35 20 l-35 0 0 -50z"/>
<path d="M1200 300 c0 -49 1 -50 30 -50 20 0 30 5 30 15 0 8 9 15 20 15 11 0
20 7 20 15 0 8 -9 15 -20 15 -13 0 -20 7 -20 20 0 16 -7 20 -30 20 -29 0 -30
-1 -30 -50z"/>
<path d="M1390 330 c0 -11 -7 -20 -15 -20 -8 0 -15 -7 -15 -15 0 -8 7 -15 15
-15 8 0 15 -7 15 -15 0 -8 7 -15 15 -15 8 0 15 7 15 15 0 8 7 15 15 15 8 0 15
7 15 15 0 8 -7 15 -15 15 -8 0 -15 9 -15 20 0 11 -7 20 -15 20 -8 0 -15 -9
-15 -20z"/>
<path d="M430 295 c0 -10 10 -15 30 -15 20 0 30 5 30 15 0 10 -10 15 -30 15
-20 0 -30 -5 -30 -15z"/>
<path d="M740 295 c0 -8 7 -15 15 -15 8 0 15 -7 15 -15 0 -8 7 -15 15 -15 8 0
15 7 15 15 0 8 7 15 15 15 8 0 15 7 15 15 0 11 -12 15 -45 15 -33 0 -45 -4
-45 -15z"/>
<path d="M920 265 c0 -38 3 -45 20 -45 11 0 20 -7 20 -15 0 -12 15 -15 75 -15
l75 0 0 60 0 60 -95 0 -95 0 0 -45z"/>
</g>
</svg>
