<?xml version="1.0" standalone="no"?>
<!DOCTYPE svg PUBLIC "-//W3C//DTD SVG 20010904//EN"
 "http://www.w3.org/TR/2001/REC-SVG-20010904/DTD/svg10.dtd">
<svg version="1.0" xmlns="http://www.w3.org/2000/svg"
 width="192.000000pt" height="192.000000pt" viewBox="0 0 192.000000 192.000000"
 preserveAspectRatio="xMidYMid meet">

<g transform="translate(0.000000,192.000000) scale(0.100000,-0.100000)"
fill="#000000" stroke="none">
<path d="M120 1740 c0 -5 -11 -10 -25 -10 -16 0 -25 -6 -25 -15 0 -8 -5 -15
-11 -15 -17 0 -39 -27 -39 -49 0 -12 -4 -21 -10 -21 -7 0 -10 -187 -10 -540 0
-353 3 -540 10 -540 6 0 10 -11 10 -25 0 -14 5 -25 10 -25 6 0 10 -7 10 -15 0
-8 7 -15 15 -15 8 0 15 -4 15 -10 0 -5 11 -10 25 -10 16 0 25 -6 25 -15 0 -13
33 -15 235 -15 150 0 235 -4 235 -10 0 -5 11 -10 25 -10 l25 0 0 -110 0 -110
-65 0 c-51 0 -65 -3 -65 -15 0 -8 -4 -15 -10 -15 -5 0 -10 -4 -10 -10 0 -7
162 -10 465 -10 303 0 465 3 465 10 0 6 -4 10 -10 10 -5 0 -10 7 -10 15 0 11
-12 15 -46 15 -67 0 -74 12 -74 124 0 89 1 96 20 96 11 0 20 5 20 10 0 6 85
10 235 10 202 0 235 2 235 15 0 9 9 15 25 15 14 0 25 5 25 10 0 6 7 10 15 10
8 0 15 7 15 15 0 8 5 15 10 15 6 0 10 11 10 25 0 16 6 25 15 25 13 0 15 67 15
540 0 473 -2 540 -15 540 -9 0 -15 9 -15 21 0 22 -22 49 -39 49 -6 0 -11 7
-11 15 0 9 -9 15 -25 15 -14 0 -25 5 -25 10 0 7 -285 10 -835 10 -550 0 -835
-3 -835 -10z m1650 -50 c0 -5 11 -10 25 -10 16 0 25 -6 25 -15 0 -8 5 -15 10
-15 6 0 10 -11 10 -25 0 -16 6 -25 15 -25 13 0 15 -64 15 -515 0 -451 -2 -515
-15 -515 -9 0 -15 -9 -15 -21 0 -26 -23 -49 -49 -49 -12 0 -21 -6 -21 -15 0
-13 -97 -15 -815 -15 -718 0 -815 2 -815 15 0 9 -9 15 -21 15 -26 0 -49 23
-49 49 0 12 -6 21 -15 21 -13 0 -15 64 -15 515 0 451 2 515 15 515 9 0 15 9
15 25 0 14 5 25 10 25 6 0 10 7 10 15 0 9 9 15 25 15 14 0 25 5 25 10 0 7 278
10 815 10 537 0 815 -3 815 -10z"/>
<path d="M590 1590 c0 -5 -7 -10 -15 -10 -9 0 -15 -9 -15 -25 0 -20 5 -25 25
-25 16 0 25 6 25 15 0 11 12 15 49 15 30 0 52 5 55 13 5 10 7 10 12 0 3 -8 25
-13 55 -13 37 0 49 -4 49 -15 0 -8 7 -15 15 -15 9 0 15 9 15 25 0 23 -3 25
-50 25 -27 0 -50 5 -50 10 0 6 -35 10 -85 10 -50 0 -85 -4 -85 -10z"/>
<path d="M440 1570 c0 -5 -7 -10 -15 -10 -11 0 -15 -11 -15 -40 0 -29 4 -40
15 -40 8 0 15 -4 15 -10 0 -5 16 -10 35 -10 19 0 35 5 35 10 0 6 7 10 15 10 9
0 15 9 15 25 0 16 -6 25 -15 25 -8 0 -15 5 -15 11 0 17 -27 39 -49 39 -12 0
-21 -4 -21 -10z m50 -25 c0 -8 5 -15 10 -15 6 0 10 -11 10 -25 0 -20 -5 -25
-25 -25 -15 0 -25 6 -25 14 0 8 -6 17 -12 20 -10 5 -10 7 0 12 6 3 12 12 12
20 0 8 7 14 15 14 8 0 15 -7 15 -15z"/>
<path d="M1200 1345 c0 -11 12 -15 50 -15 28 0 50 -4 50 -10 0 -5 16 -10 35
-10 24 0 35 -5 35 -15 0 -8 7 -15 15 -15 8 0 15 -4 15 -10 0 -5 9 -10 21 -10
22 0 49 -22 49 -39 0 -6 6 -11 14 -11 8 0 17 -6 20 -12 5 -10 7 -10 12 0 3 6
17 12 30 12 13 0 24 5 24 11 0 14 -25 39 -39 39 -6 0 -11 5 -11 10 0 6 -11 10
-25 10 -16 0 -25 6 -25 15 0 9 -9 15 -25 15 -14 0 -25 5 -25 10 0 6 -22 10
-50 10 -38 0 -50 4 -50 15 0 12 -13 15 -60 15 -47 0 -60 -3 -60 -15z"/>
<path d="M1570 1175 c0 -8 -4 -15 -10 -15 -5 0 -10 -16 -10 -35 0 -19 5 -35
10 -35 6 0 10 -7 10 -15 0 -10 11 -15 35 -15 24 0 35 5 35 15 0 8 7 15 15 15
10 0 15 11 15 35 0 24 -5 35 -15 35 -8 0 -15 7 -15 15 0 10 -11 15 -35 15 -24
0 -35 -5 -35 -15z m70 -36 c0 -25 -31 -60 -38 -41 -2 6 -10 12 -18 12 -8 0
-14 7 -14 15 0 8 7 15 15 15 8 0 15 5 15 10 0 6 9 10 20 10 14 0 20 -7 20 -21z"/>
<path d="M780 1079 c0 -6 -6 -17 -14 -25 -8 -8 -19 -14 -25 -14 -6 0 -11 -18
-11 -40 0 -29 4 -40 15 -40 8 0 15 -4 15 -10 0 -16 89 -12 106 4 28 29 10 106
-25 106 -6 0 -11 7 -11 15 0 9 -9 15 -25 15 -14 0 -25 -5 -25 -11z m50 -54 c0
-8 7 -15 15 -15 8 0 15 -4 15 -10 0 -5 -7 -10 -15 -10 -8 0 -15 -7 -15 -15 0
-8 -4 -15 -10 -15 -5 0 -10 7 -10 15 0 9 -9 15 -25 15 -14 0 -25 5 -25 10 0 6
5 10 10 10 6 0 10 7 10 15 0 9 9 15 25 15 16 0 25 -6 25 -15z"/>
<path d="M780 895 c0 -16 6 -25 15 -25 11 0 15 -11 15 -36 0 -35 18 -64 39
-64 6 0 11 -5 11 -11 0 -17 27 -39 49 -39 12 0 21 -6 21 -15 0 -10 11 -15 35
-15 19 0 35 -4 35 -10 0 -6 37 -10 90 -10 53 0 90 4 90 10 0 6 -32 10 -75 10
-60 0 -75 3 -75 15 0 9 -9 15 -25 15 -14 0 -25 5 -25 10 0 6 -11 10 -25 10
-16 0 -25 6 -25 15 0 8 -4 15 -10 15 -5 0 -10 11 -10 25 0 16 -6 25 -15 25 -9
0 -15 9 -15 25 0 14 -4 25 -10 25 -5 0 -10 11 -10 25 0 23 -4 25 -40 25 -36 0
-40 -2 -40 -25z"/>
<path d="M1670 290 c0 -6 -27 -10 -60 -10 -47 0 -60 -3 -60 -15 0 -8 -5 -15
-11 -15 -14 0 -39 -25 -39 -39 0 -6 -7 -11 -15 -11 -12 0 -15 -13 -15 -60 0
-47 3 -60 15 -60 8 0 15 -7 15 -15 0 -13 28 -15 195 -15 167 0 195 2 195 15 0
8 7 15 15 15 12 0 15 13 15 60 0 47 -3 60 -15 60 -8 0 -15 5 -15 11 0 17 -27
39 -49 39 -12 0 -21 6 -21 15 0 11 -12 15 -50 15 -27 0 -50 5 -50 10 0 6 -11
10 -25 10 -14 0 -25 -4 -25 -10z m-30 -85 c0 -23 -4 -25 -45 -25 -33 0 -45 -4
-45 -15 0 -8 -7 -15 -15 -15 -9 0 -15 9 -15 25 0 16 6 25 15 25 8 0 15 7 15
15 0 11 12 15 45 15 41 0 45 -2 45 -25z m180 10 c0 -9 9 -15 25 -15 20 0 25
-5 25 -25 0 -16 -6 -25 -15 -25 -8 0 -15 7 -15 15 0 11 -12 15 -50 15 -47 0
-50 2 -50 25 0 23 4 25 40 25 29 0 40 -4 40 -15z m-100 -50 c0 -10 11 -15 35
-15 19 0 35 -4 35 -10 0 -5 18 -10 40 -10 29 0 40 -4 40 -15 0 -13 -26 -15
-175 -15 -149 0 -175 2 -175 15 0 9 9 15 25 15 14 0 25 5 25 10 0 6 23 10 50
10 38 0 50 4 50 15 0 9 9 15 25 15 16 0 25 -6 25 -15z"/>
</g>
</svg>
