<?xml version="1.0" standalone="no"?>
<!DOCTYPE svg PUBLIC "-//W3C//DTD SVG 20010904//EN"
 "http://www.w3.org/TR/2001/REC-SVG-20010904/DTD/svg10.dtd">
<svg version="1.0" xmlns="http://www.w3.org/2000/svg"
 width="192.000000pt" height="192.000000pt" viewBox="0 0 192.000000 192.000000"
 preserveAspectRatio="xMidYMid meet">

<g transform="translate(0.000000,192.000000) scale(0.100000,-0.100000)"
fill="#000000" stroke="none">
<path d="M1560 1760 l0 -160 -640 0 c-633 0 -640 0 -640 -20 0 -17 -7 -20 -40
-20 l-40 0 0 -780 0 -780 40 0 40 0 0 740 c0 733 0 740 20 740 13 0 20 7 20
20 0 20 7 20 640 20 633 0 640 0 640 -20 0 -13 7 -20 20 -20 20 0 20 -7 20
-740 l0 -740 40 0 40 0 0 780 0 780 -40 0 -40 0 0 180 0 180 -40 0 -40 0 0
-160z"/>
<path d="M360 1420 c0 -13 -7 -20 -20 -20 -20 0 -20 -7 -20 -620 0 -613 0
-620 20 -620 13 0 20 -7 20 -20 0 -17 7 -20 40 -20 33 0 40 -3 40 -20 0 -20 7
-20 520 -20 513 0 520 0 520 20 0 17 7 20 40 20 33 0 40 3 40 20 0 13 7 20 20
20 20 0 20 7 20 620 0 613 0 620 -20 620 -13 0 -20 7 -20 20 0 20 -7 20 -600
20 -593 0 -600 0 -600 -20z m1120 -80 c0 -13 7 -20 20 -20 20 0 20 -7 20 -560
l0 -560 -40 0 c-33 0 -40 -3 -40 -20 0 -20 -7 -20 -500 -20 -493 0 -500 0
-500 20 0 13 -7 20 -20 20 -20 0 -20 7 -20 560 0 553 0 560 20 560 13 0 20 7
20 20 0 20 7 20 520 20 513 0 520 0 520 -20z"/>
<path d="M480 1260 c0 -13 -7 -20 -20 -20 -19 0 -20 -7 -20 -200 0 -193 1
-200 20 -200 13 0 20 -7 20 -20 0 -20 7 -20 480 -20 473 0 480 0 480 20 0 13
7 20 20 20 19 0 20 7 20 200 0 193 -1 200 -20 200 -13 0 -20 7 -20 20 0 20 -7
20 -480 20 -473 0 -480 0 -480 -20z m920 -220 l0 -160 -440 0 -440 0 0 160 0
160 440 0 440 0 0 -160z"/>
<path d="M600 1140 c0 -13 7 -20 20 -20 18 0 20 -7 20 -80 0 -73 -2 -80 -20
-80 -13 0 -20 -7 -20 -20 0 -18 7 -20 60 -20 53 0 60 2 60 20 0 13 -7 20 -20
20 -19 0 -20 7 -20 100 l0 100 -40 0 c-33 0 -40 -3 -40 -20z"/>
<path d="M760 1040 l0 -120 60 0 60 0 0 120 0 120 -60 0 -60 0 0 -120z m80 0
c0 -73 -2 -80 -20 -80 -18 0 -20 7 -20 80 0 73 2 80 20 80 18 0 20 -7 20 -80z"/>
<path d="M920 1080 l0 -80 40 0 40 0 0 -40 c0 -33 3 -40 20 -40 17 0 20 7 20
40 0 33 3 40 20 40 13 0 20 7 20 20 0 13 -7 20 -20 20 -18 0 -20 7 -20 60 0
53 -2 60 -20 60 -18 0 -20 -7 -20 -60 0 -53 -2 -60 -20 -60 -18 0 -20 7 -20
60 0 53 -2 60 -20 60 -18 0 -20 -7 -20 -80z"/>
<path d="M1200 1100 l0 -60 40 0 40 0 0 -60 c0 -53 2 -60 20 -60 19 0 20 7 20
120 l0 120 -60 0 -60 0 0 -60z m80 0 c0 -13 -7 -20 -20 -20 -13 0 -20 7 -20
20 0 13 7 20 20 20 13 0 20 -7 20 -20z"/>
<path d="M1120 940 c0 -13 7 -20 20 -20 13 0 20 7 20 20 0 13 -7 20 -20 20
-13 0 -20 -7 -20 -20z"/>
<path d="M480 540 l0 -60 80 0 80 0 0 60 0 60 -80 0 -80 0 0 -60z"/>
<path d="M760 540 l0 -60 80 0 80 0 0 60 0 60 -80 0 -80 0 0 -60z"/>
<path d="M1040 540 l0 -60 80 0 80 0 0 60 0 60 -80 0 -80 0 0 -60z"/>
<path d="M1320 540 l0 -60 80 0 80 0 0 60 0 60 -80 0 -80 0 0 -60z"/>
<path d="M480 340 l0 -60 80 0 80 0 0 60 0 60 -80 0 -80 0 0 -60z"/>
<path d="M760 340 l0 -60 80 0 80 0 0 60 0 60 -80 0 -80 0 0 -60z"/>
<path d="M1040 340 l0 -60 80 0 80 0 0 60 0 60 -80 0 -80 0 0 -60z"/>
<path d="M1320 340 l0 -60 80 0 80 0 0 60 0 60 -80 0 -80 0 0 -60z"/>
<path d="M840 20 c0 -19 7 -20 140 -20 133 0 140 1 140 20 0 19 -7 20 -140 20
-133 0 -140 -1 -140 -20z"/>
</g>
</svg>
