<?xml version="1.0" standalone="no"?>
<!DOCTYPE svg PUBLIC "-//W3C//DTD SVG 20010904//EN"
 "http://www.w3.org/TR/2001/REC-SVG-20010904/DTD/svg10.dtd">
<svg version="1.0" xmlns="http://www.w3.org/2000/svg"
 width="192.000000pt" height="192.000000pt" viewBox="0 0 192.000000 192.000000"
 preserveAspectRatio="xMidYMid meet">

<g transform="translate(0.000000,192.000000) scale(0.100000,-0.100000)"
fill="#000000" stroke="none">
<path d="M580 1900 c0 -18 -7 -20 -85 -20 -78 0 -85 -2 -85 -20 0 -18 -7 -20
-60 -20 -53 0 -60 -2 -60 -20 0 -17 -7 -20 -45 -20 -38 0 -45 -3 -45 -20 0
-18 -7 -20 -60 -20 l-60 0 0 -440 c0 -433 0 -440 20 -440 20 0 20 -7 20 -395
0 -388 0 -395 20 -395 17 0 20 -7 20 -45 l0 -45 45 0 45 0 0 45 c0 41 -2 45
-25 45 l-25 0 0 415 c0 408 0 415 -20 415 -20 0 -20 7 -20 375 0 368 0 375 20
375 15 0 20 7 20 25 0 23 4 25 45 25 38 0 45 3 45 20 0 18 7 20 60 20 53 0 60
2 60 20 0 18 7 20 85 20 78 0 85 2 85 20 0 20 7 20 395 20 388 0 395 0 395
-20 0 -18 7 -20 65 -20 58 0 65 -2 65 -20 0 -18 7 -20 60 -20 53 0 60 -2 60
-20 0 -13 7 -20 20 -20 15 0 20 -7 20 -25 0 -23 4 -25 45 -25 l45 0 0 -250 c0
-243 -1 -250 -20 -250 -20 0 -20 -7 -20 -395 l0 -395 -25 0 -25 0 0 -190 0
-190 45 0 45 0 0 190 c0 183 1 190 20 190 20 0 20 7 20 375 0 368 0 375 20
375 20 0 20 7 20 295 0 288 0 295 -20 295 -13 0 -20 7 -20 20 0 17 -7 20 -40
20 -33 0 -40 3 -40 20 0 17 -7 20 -45 20 -38 0 -45 3 -45 20 0 17 -7 20 -40
20 -33 0 -40 3 -40 20 0 18 -7 20 -85 20 -78 0 -85 2 -85 20 0 20 -7 20 -395
20 -388 0 -395 0 -395 -20z"/>
<path d="M830 1740 c0 -13 -7 -20 -20 -20 -18 0 -20 -7 -20 -85 0 -78 2 -85
20 -85 13 0 20 -7 20 -20 0 -18 7 -20 85 -20 78 0 85 2 85 20 0 13 7 20 20 20
18 0 20 7 20 85 0 78 -2 85 -20 85 -13 0 -20 7 -20 20 0 18 -7 20 -85 20 -78
0 -85 -2 -85 -20z m130 -45 c0 -18 5 -25 20 -25 17 0 20 -7 20 -40 0 -33 -3
-40 -20 -40 -13 0 -20 -7 -20 -20 0 -17 -7 -20 -45 -20 -38 0 -45 3 -45 20 0
13 -7 20 -20 20 -17 0 -20 7 -20 40 0 33 3 40 20 40 15 0 20 7 20 25 0 23 4
25 45 25 41 0 45 -2 45 -25z"/>
<path d="M540 1695 c0 -18 -5 -25 -20 -25 -18 0 -20 -7 -20 -80 0 -73 2 -80
20 -80 13 0 20 -7 20 -20 0 -18 7 -20 80 -20 73 0 80 2 80 20 0 15 7 20 25 20
25 0 25 1 25 80 0 79 0 80 -25 80 -20 0 -25 5 -25 25 0 25 -1 25 -80 25 -79 0
-80 0 -80 -25z m120 -45 c0 -13 7 -20 20 -20 17 0 20 -7 20 -40 0 -33 -3 -40
-20 -40 -13 0 -20 -7 -20 -20 0 -17 -7 -20 -40 -20 -33 0 -40 3 -40 20 0 13
-7 20 -20 20 -17 0 -20 7 -20 40 0 33 3 40 20 40 13 0 20 7 20 20 0 17 7 20
40 20 33 0 40 -3 40 -20z"/>
<path d="M1120 1695 c0 -18 -5 -25 -20 -25 -18 0 -20 -7 -20 -80 0 -73 2 -80
20 -80 13 0 20 -7 20 -20 0 -18 7 -20 85 -20 78 0 85 2 85 20 0 13 7 20 20 20
18 0 20 7 20 80 0 73 -2 80 -20 80 -15 0 -20 7 -20 25 0 25 -1 25 -85 25 -84
0 -85 0 -85 -25z"/>
<path d="M250 1650 c0 -15 -7 -20 -25 -20 -25 0 -25 -1 -25 -80 0 -79 0 -80
25 -80 20 0 25 -5 25 -25 0 -25 1 -25 80 -25 79 0 80 0 80 25 0 18 5 25 20 25
18 0 20 7 20 80 0 73 -2 80 -20 80 -13 0 -20 7 -20 20 0 18 -7 20 -80 20 -73
0 -80 -2 -80 -20z m120 -40 c0 -13 7 -20 20 -20 17 0 20 -7 20 -40 0 -33 -3
-40 -20 -40 -13 0 -20 -7 -20 -20 0 -17 -7 -20 -40 -20 -33 0 -40 3 -40 20 0
13 -7 20 -20 20 -17 0 -20 7 -20 40 0 33 3 40 20 40 13 0 20 7 20 20 0 17 7
20 40 20 33 0 40 -3 40 -20z"/>
<path d="M1410 1650 c0 -13 -7 -20 -20 -20 -18 0 -20 -7 -20 -80 0 -73 2 -80
20 -80 15 0 20 -7 20 -25 0 -25 1 -25 85 -25 84 0 85 0 85 25 0 18 5 25 20 25
18 0 20 7 20 80 0 73 -2 80 -20 80 -13 0 -20 7 -20 20 0 18 -7 20 -85 20 -78
0 -85 -2 -85 -20z"/>
<path d="M580 1170 c0 -203 1 -210 20 -210 19 0 20 -7 20 -185 l0 -185 -60 0
-60 0 0 85 c0 84 0 85 -25 85 -25 0 -25 1 -25 80 0 73 -2 80 -20 80 -18 0 -20
7 -20 85 0 78 -2 85 -20 85 -19 0 -20 7 -20 105 l0 105 -60 0 c-53 0 -60 -2
-60 -20 0 -13 7 -20 20 -20 18 0 20 -7 20 -85 0 -78 2 -85 20 -85 18 0 20 -7
20 -85 0 -78 2 -85 20 -85 18 0 20 -7 20 -80 0 -73 2 -80 20 -80 18 0 20 -7
20 -85 0 -78 2 -85 20 -85 13 0 20 -7 20 -20 0 -15 7 -20 25 -20 18 0 25 -5
25 -20 0 -20 7 -20 480 -20 473 0 480 0 480 20 0 13 7 20 20 20 19 0 20 7 20
125 0 118 1 125 20 125 19 0 20 7 20 105 0 98 1 105 20 105 19 0 20 7 20 125
0 118 1 125 20 125 13 0 20 7 20 20 0 17 -7 20 -40 20 -33 0 -40 -3 -40 -20 0
-13 -7 -20 -20 -20 -19 0 -20 -7 -20 -105 0 -98 -1 -105 -20 -105 -19 0 -20
-7 -20 -125 l0 -125 -25 0 -25 0 0 -105 0 -105 -60 0 -60 0 0 165 c0 158 1
165 20 165 19 0 20 7 20 190 0 183 1 190 20 190 13 0 20 7 20 20 0 17 -7 20
-40 20 -33 0 -40 -3 -40 -20 0 -13 -7 -20 -20 -20 -19 0 -20 -7 -20 -190 0
-183 -1 -190 -20 -190 -19 0 -20 -7 -20 -165 l0 -165 -65 0 -65 0 0 395 0 395
-40 0 -40 0 0 -395 0 -395 -65 0 -65 0 0 375 0 375 -40 0 -40 0 0 -375 0 -375
-45 0 -45 0 0 185 c0 178 -1 185 -20 185 -19 0 -20 7 -20 210 l0 210 -40 0
-40 0 0 -210z"/>
<path d="M580 280 c0 -17 -7 -20 -40 -20 -36 0 -40 -2 -40 -25 0 -20 -5 -25
-25 -25 l-25 0 0 -105 0 -105 45 0 45 0 0 85 c0 78 2 85 20 85 13 0 20 7 20
20 0 13 7 20 20 20 13 0 20 -7 20 -20 0 -13 7 -20 20 -20 13 0 20 7 20 20 0
20 7 20 315 20 308 0 315 0 315 -20 0 -13 7 -20 20 -20 18 0 20 -7 20 -85 l0
-85 40 0 40 0 0 105 c0 98 -1 105 -20 105 -15 0 -20 7 -20 25 0 23 -4 25 -40
25 -33 0 -40 3 -40 20 0 20 -7 20 -355 20 -348 0 -355 0 -355 -20z"/>
<path d="M790 70 c0 -13 -7 -20 -20 -20 -15 0 -20 -7 -20 -25 l0 -25 185 0
185 0 0 25 c0 23 -4 25 -40 25 -33 0 -40 3 -40 20 0 19 -7 20 -125 20 -118 0
-125 -1 -125 -20z"/>
</g>
</svg>
