<?xml version="1.0" standalone="no"?>
<!DOCTYPE svg PUBLIC "-//W3C//DTD SVG 20010904//EN"
 "http://www.w3.org/TR/2001/REC-SVG-20010904/DTD/svg10.dtd">
<svg version="1.0" xmlns="http://www.w3.org/2000/svg"
 width="192.000000pt" height="192.000000pt" viewBox="0 0 192.000000 192.000000"
 preserveAspectRatio="xMidYMid meet">

<g transform="translate(0.000000,192.000000) scale(0.100000,-0.100000)"
fill="#000000" stroke="none">
<path d="M193 1715 c-7 -8 -13 -19 -13 -25 0 -5 -12 -10 -26 -10 -35 0 -54
-22 -54 -64 0 -35 -1 -36 -40 -36 -29 0 -40 -4 -40 -15 0 -8 -4 -15 -10 -15
-7 0 -10 -210 -10 -610 l0 -610 165 0 c103 0 165 -4 165 -10 0 -6 47 -10 120
-10 100 0 120 -2 120 -15 0 -12 15 -15 75 -15 43 0 75 -4 75 -10 0 -5 18 -10
40 -10 29 0 40 -4 40 -15 0 -11 11 -15 40 -15 29 0 40 -4 40 -15 0 -12 15 -15
75 -15 60 0 75 3 75 15 0 11 11 15 40 15 29 0 40 4 40 15 0 11 11 15 40 15 22
0 40 5 40 10 0 6 23 10 50 10 38 0 50 4 50 15 0 12 17 15 90 15 53 0 90 4 90
10 0 6 82 10 225 10 l225 0 0 610 0 610 -30 0 c-20 0 -30 5 -30 15 0 8 -4 15
-10 15 -5 0 -10 11 -10 25 0 16 -6 25 -15 25 -8 0 -15 7 -15 15 0 11 -11 15
-40 15 -34 0 -40 3 -40 21 0 39 -23 49 -114 49 -51 0 -86 -4 -86 -10 0 -6 -28
-10 -65 -10 -51 0 -65 -3 -65 -15 0 -11 -11 -15 -40 -15 -22 0 -40 -4 -40 -10
0 -5 -18 -10 -40 -10 -29 0 -40 -4 -40 -15 0 -9 -9 -15 -25 -15 -14 0 -25 -4
-25 -10 0 -5 -18 -10 -40 -10 -29 0 -40 -4 -40 -15 0 -11 -11 -15 -40 -15 -29
0 -40 -4 -40 -15 0 -12 -14 -15 -65 -15 -51 0 -65 3 -65 15 0 9 -9 15 -25 15
-16 0 -25 6 -25 15 0 11 -11 15 -40 15 -22 0 -40 5 -40 10 0 6 -11 10 -25 10
-16 0 -25 6 -25 15 0 11 -11 15 -40 15 -22 0 -40 5 -40 10 0 6 -16 10 -35 10
-24 0 -35 5 -35 15 0 12 -14 15 -65 15 -37 0 -65 4 -65 10 0 17 -232 12 -247
-5z m247 -45 c0 -6 28 -10 65 -10 51 0 65 -3 65 -15 0 -10 11 -15 35 -15 19 0
35 -4 35 -10 0 -5 18 -10 40 -10 29 0 40 -4 40 -15 0 -9 9 -15 25 -15 16 0 25
-6 25 -15 0 -10 10 -15 30 -15 17 0 30 -4 30 -10 0 -5 16 -10 35 -10 24 0 35
-5 35 -15 0 -8 7 -15 15 -15 13 0 15 -64 15 -520 0 -456 -2 -520 -15 -520 -8
0 -15 7 -15 15 0 9 -9 15 -25 15 -16 0 -25 6 -25 15 0 11 -11 15 -40 15 -22 0
-40 5 -40 10 0 6 -16 10 -35 10 -24 0 -35 5 -35 15 0 10 -10 15 -30 15 -16 0
-30 5 -30 10 0 6 -16 10 -35 10 -24 0 -35 5 -35 15 0 11 -11 15 -40 15 -29 0
-40 4 -40 15 0 12 -13 15 -55 15 -30 0 -55 5 -55 10 0 6 -32 10 -75 10 l-75 0
0 505 0 505 105 0 c63 0 105 -4 105 -10z m1240 -505 l0 -515 -105 0 c-87 0
-105 -3 -105 -15 0 -12 -14 -15 -65 -15 -51 0 -65 -3 -65 -15 0 -10 -11 -15
-35 -15 -19 0 -35 -4 -35 -10 0 -5 -18 -10 -40 -10 -29 0 -40 -4 -40 -15 0 -9
-9 -15 -25 -15 -14 0 -25 -4 -25 -10 0 -5 -18 -10 -40 -10 -29 0 -40 -4 -40
-15 0 -9 -9 -15 -25 -15 -16 0 -25 -6 -25 -15 0 -8 -7 -15 -15 -15 -13 0 -15
64 -15 520 l0 520 40 0 c29 0 40 4 40 15 0 9 9 15 25 15 14 0 25 5 25 10 0 6
18 10 40 10 29 0 40 4 40 15 0 11 11 15 40 15 29 0 40 4 40 15 0 9 9 15 25 15
14 0 25 5 25 10 0 6 18 10 40 10 29 0 40 4 40 15 0 11 12 15 50 15 28 0 50 5
50 10 0 6 37 10 90 10 l90 0 0 -515z m-1500 -25 c0 -320 3 -490 10 -490 6 0
10 -7 10 -15 0 -12 16 -15 80 -15 64 0 80 -3 80 -15 0 -11 12 -15 50 -15 28 0
50 -4 50 -10 0 -5 25 -10 55 -10 42 0 55 -3 55 -15 0 -9 9 -15 25 -15 14 0 25
-4 25 -10 0 -5 18 -10 40 -10 29 0 40 -4 40 -15 0 -10 11 -15 35 -15 24 0 35
-5 35 -15 0 -10 10 -15 30 -15 17 0 30 -4 30 -10 0 -5 16 -10 35 -10 24 0 35
-5 35 -15 0 -8 7 -15 15 -15 8 0 15 -4 15 -10 0 -5 11 -10 25 -10 14 0 25 5
25 10 0 6 7 10 15 10 8 0 15 7 15 15 0 10 11 15 35 15 19 0 35 5 35 10 0 6 14
10 30 10 20 0 30 5 30 15 0 9 9 15 25 15 16 0 25 6 25 15 0 11 11 15 40 15 22
0 40 5 40 10 0 6 23 10 50 10 38 0 50 4 50 15 0 11 12 15 50 15 28 0 50 5 50
10 0 6 47 10 120 10 100 0 120 3 120 15 0 8 5 15 10 15 7 0 10 172 10 495 l0
495 30 0 30 0 0 -535 0 -535 -65 0 c-37 0 -65 -4 -65 -10 0 -6 -33 -10 -80
-10 -64 0 -80 -3 -80 -15 0 -12 -17 -15 -90 -15 -73 0 -90 -3 -90 -15 0 -12
-14 -15 -65 -15 -37 0 -65 -4 -65 -10 0 -5 -18 -10 -40 -10 -29 0 -40 -4 -40
-15 0 -9 -9 -15 -25 -15 -14 0 -25 -4 -25 -10 0 -5 -7 -10 -15 -10 -8 0 -15
-7 -15 -15 0 -9 -9 -15 -25 -15 -16 0 -25 -6 -25 -15 0 -9 -9 -15 -25 -15 -16
0 -25 6 -25 15 0 9 -9 15 -25 15 -16 0 -25 6 -25 15 0 9 -9 15 -25 15 -14 0
-25 5 -25 10 0 6 -18 10 -40 10 -29 0 -40 4 -40 15 0 11 -11 15 -40 15 -22 0
-40 5 -40 10 0 6 -22 10 -50 10 -38 0 -50 4 -50 15 0 12 -16 15 -80 15 -64 0
-80 3 -80 15 0 13 -21 15 -130 15 l-130 0 0 555 c0 487 2 555 15 555 13 0 15
-61 15 -490z m-80 -145 l0 -535 155 0 c97 0 155 -4 155 -10 0 -6 33 -10 80
-10 64 0 80 -3 80 -15 0 -11 12 -15 50 -15 28 0 50 -4 50 -10 0 -5 18 -10 40
-10 29 0 40 -4 40 -15 0 -9 9 -15 25 -15 16 0 25 -6 25 -15 0 -11 11 -15 36
-15 35 0 64 -18 64 -39 0 -6 14 -11 30 -11 17 0 30 -4 30 -10 0 -5 -13 -10
-30 -10 -16 0 -30 5 -30 10 0 6 -22 10 -50 10 -38 0 -50 4 -50 15 0 11 -11 15
-40 15 -22 0 -40 5 -40 10 0 6 -32 10 -75 10 -60 0 -75 3 -75 15 0 13 -20 15
-120 15 -100 0 -120 3 -120 15 0 13 -22 15 -140 15 l-140 0 0 570 0 570 25 0
25 0 0 -535z m1760 -35 l0 -570 -195 0 c-167 0 -195 -2 -195 -15 0 -12 -17
-15 -90 -15 -73 0 -90 -3 -90 -15 0 -11 -12 -15 -50 -15 -27 0 -50 -4 -50 -10
0 -5 -25 -10 -55 -10 -42 0 -55 -3 -55 -15 0 -9 -9 -15 -25 -15 -14 0 -25 -4
-25 -10 0 -5 -11 -10 -25 -10 -14 0 -25 5 -25 10 0 6 7 10 15 10 8 0 15 5 15
11 0 17 27 39 49 39 12 0 21 6 21 15 0 8 7 15 15 15 8 0 15 7 15 15 0 11 11
15 40 15 22 0 40 5 40 10 0 6 28 10 65 10 51 0 65 3 65 15 0 12 17 15 90 15
53 0 90 4 90 10 0 6 33 10 80 10 64 0 80 3 80 15 0 12 17 15 90 15 l90 0 0
520 c0 340 3 520 10 520 7 0 10 -197 10 -570z"/>
</g>
</svg>
