<?xml version="1.0" standalone="no"?>
<!DOCTYPE svg PUBLIC "-//W3C//DTD SVG 20010904//EN"
 "http://www.w3.org/TR/2001/REC-SVG-20010904/DTD/svg10.dtd">
<svg version="1.0" xmlns="http://www.w3.org/2000/svg"
 width="192.000000pt" height="192.000000pt" viewBox="0 0 192.000000 192.000000"
 preserveAspectRatio="xMidYMid meet">

<g transform="translate(0.000000,192.000000) scale(0.100000,-0.100000)"
fill="#000000" stroke="none">
<path d="M960 1905 c0 -8 -9 -15 -20 -15 -11 0 -20 -7 -20 -15 0 -8 -7 -15
-15 -15 -12 0 -15 -18 -15 -105 0 -87 3 -105 15 -105 13 0 15 -34 15 -250 0
-243 1 -250 20 -250 11 0 20 -7 20 -15 0 -12 13 -15 60 -15 47 0 60 3 60 15 0
8 7 15 15 15 8 0 15 7 15 15 0 8 7 15 15 15 13 0 15 46 15 355 0 309 -2 355
-15 355 -8 0 -15 7 -15 15 0 12 -15 15 -75 15 -60 0 -75 -3 -75 -15z m120
-370 c0 -282 -2 -325 -15 -325 -8 0 -15 -7 -15 -15 0 -8 -7 -15 -15 -15 -8 0
-15 7 -15 15 0 8 -7 15 -15 15 -13 0 -15 31 -15 220 0 189 -2 220 -15 220 -12
0 -15 17 -15 90 0 73 3 90 15 90 8 0 15 7 15 15 0 11 12 15 45 15 l45 0 0
-325z"/>
<path d="M1260 1815 c0 -10 -10 -15 -30 -15 -27 0 -30 -3 -30 -30 0 -20 -5
-30 -15 -30 -12 0 -15 -13 -15 -60 0 -47 3 -60 15 -60 13 0 15 -22 15 -140 0
-118 -2 -140 -15 -140 -12 0 -15 -19 -15 -110 0 -91 3 -110 15 -110 10 0 15
-10 15 -30 0 -29 1 -30 50 -30 38 0 50 4 50 15 0 8 7 15 15 15 12 0 15 15 15
75 0 60 3 75 15 75 12 0 15 16 15 80 0 64 3 80 15 80 12 0 15 19 15 110 0 91
3 110 15 110 12 0 15 13 15 60 0 47 -3 60 -15 60 -8 0 -15 7 -15 15 0 8 -7 15
-15 15 -8 0 -15 7 -15 15 0 8 -7 15 -15 15 -8 0 -15 7 -15 15 0 10 -11 15 -35
15 -24 0 -35 -5 -35 -15z m70 -75 c0 -20 5 -30 15 -30 11 0 15 -12 15 -45 0
-33 -4 -45 -15 -45 -12 0 -15 -17 -15 -95 0 -78 -3 -95 -15 -95 -12 0 -15 -17
-15 -95 0 -88 -1 -95 -20 -95 -18 0 -20 -7 -20 -60 0 -47 -3 -60 -15 -60 -12
0 -15 17 -15 95 0 78 3 95 15 95 13 0 15 24 15 155 0 131 -2 155 -15 155 -12
0 -15 13 -15 60 l0 60 35 0 c24 0 35 5 35 15 0 8 7 15 15 15 10 0 15 -10 15
-30z"/>
<path d="M680 1755 c0 -8 -7 -15 -15 -15 -13 0 -15 -21 -15 -125 0 -104 2
-125 15 -125 13 0 15 -27 15 -185 0 -158 2 -185 15 -185 8 0 15 -7 15 -15 0
-8 7 -15 15 -15 8 0 15 -7 15 -15 0 -10 10 -15 30 -15 20 0 30 5 30 15 0 8 7
15 15 15 8 0 15 7 15 15 0 10 10 15 30 15 l30 0 0 265 c0 229 -2 265 -15 265
-10 0 -15 10 -15 30 0 20 -5 30 -15 30 -10 0 -15 10 -15 30 l0 30 -75 0 c-60
0 -75 -3 -75 -15z m90 -60 c0 -8 7 -15 15 -15 10 0 15 -10 15 -30 0 -20 5 -30
15 -30 13 0 15 -33 15 -235 l0 -235 -30 0 c-20 0 -30 -5 -30 -15 0 -8 -7 -15
-15 -15 -13 0 -15 27 -15 185 0 158 -2 185 -15 185 -12 0 -15 19 -15 110 l0
110 30 0 c20 0 30 -5 30 -15z"/>
<path d="M1570 1445 c0 -10 -10 -15 -30 -15 -27 0 -30 -3 -30 -30 0 -20 -5
-30 -15 -30 -13 0 -15 -21 -15 -125 0 -104 -2 -125 -15 -125 -11 0 -15 -12
-15 -45 0 -33 -4 -45 -15 -45 -8 0 -15 -7 -15 -15 0 -8 -7 -15 -15 -15 -8 0
-15 -9 -15 -20 0 -16 -7 -20 -30 -20 -20 0 -30 -5 -30 -15 0 -8 -7 -15 -15
-15 -8 0 -15 7 -15 15 0 8 -9 15 -20 15 -13 0 -20 7 -20 20 0 16 -7 20 -30 20
-20 0 -30 5 -30 15 0 10 -10 15 -30 15 -20 0 -30 5 -30 15 0 10 -10 15 -30 15
-20 0 -30 5 -30 15 0 12 -19 15 -110 15 -91 0 -110 -3 -110 -15 0 -10 -10 -15
-30 -15 -20 0 -30 -5 -30 -15 0 -8 -7 -15 -15 -15 -8 0 -15 -7 -15 -15 0 -8
-7 -15 -15 -15 -10 0 -15 -11 -15 -35 0 -24 -5 -35 -15 -35 -10 0 -15 -10 -15
-30 0 -20 -5 -30 -15 -30 -12 0 -15 -15 -15 -75 0 -60 3 -75 15 -75 8 0 15 -7
15 -15 0 -8 7 -15 15 -15 10 0 15 -11 15 -35 0 -24 5 -35 15 -35 8 0 15 -7 15
-15 0 -8 7 -15 15 -15 8 0 15 -7 15 -15 0 -8 7 -15 15 -15 8 0 15 -7 15 -15 0
-8 7 -15 15 -15 8 0 15 -7 15 -15 0 -8 -7 -15 -15 -15 -8 0 -15 7 -15 15 0 10
-10 15 -30 15 -20 0 -30 5 -30 15 0 8 -7 15 -15 15 -8 0 -15 7 -15 15 0 8 -7
15 -15 15 -8 0 -15 7 -15 15 0 8 -7 15 -15 15 -8 0 -15 9 -15 20 0 11 -7 20
-15 20 -8 0 -15 7 -15 15 0 8 -9 15 -20 15 -11 0 -20 7 -20 15 0 8 -7 15 -15
15 -10 0 -15 10 -15 30 0 20 -5 30 -15 30 -8 0 -15 7 -15 15 0 8 -7 15 -15 15
-8 0 -15 7 -15 15 0 8 -7 15 -15 15 -10 0 -15 10 -15 30 0 20 -5 30 -15 30 -8
0 -15 7 -15 15 0 8 -7 15 -15 15 -8 0 -15 7 -15 15 0 8 -7 15 -15 15 -8 0 -15
9 -15 20 0 11 -7 20 -15 20 -8 0 -15 7 -15 15 0 8 -7 15 -15 15 -8 0 -15 7
-15 15 0 12 -16 15 -80 15 l-80 0 0 -30 c0 -20 -5 -30 -15 -30 -10 0 -15 -11
-15 -35 0 -24 5 -35 15 -35 10 0 15 -10 15 -30 0 -20 5 -30 15 -30 8 0 15 -7
15 -15 0 -8 7 -15 15 -15 8 0 15 -7 15 -15 0 -8 7 -15 15 -15 8 0 15 -7 15
-15 0 -8 7 -15 15 -15 8 0 15 -7 15 -15 0 -8 9 -15 20 -15 11 0 20 -7 20 -15
0 -8 7 -15 15 -15 8 0 15 -7 15 -15 0 -8 7 -15 15 -15 10 0 15 -11 15 -35 0
-24 5 -35 15 -35 8 0 15 -7 15 -15 0 -8 7 -15 15 -15 12 0 15 -17 15 -90 0
-73 3 -90 15 -90 10 0 15 -10 15 -30 0 -20 5 -30 15 -30 8 0 15 -9 15 -20 0
-11 7 -20 15 -20 8 0 15 -7 15 -15 0 -8 7 -15 15 -15 10 0 15 -10 15 -30 0
-20 5 -30 15 -30 8 0 15 -7 15 -15 0 -8 9 -15 20 -15 11 0 20 -7 20 -15 0 -8
7 -15 15 -15 8 0 15 -7 15 -15 0 -8 7 -15 15 -15 10 0 15 -10 15 -30 0 -20 5
-30 15 -30 8 0 15 -7 15 -15 0 -8 7 -15 15 -15 8 0 15 -9 15 -20 0 -19 7 -20
215 -20 208 0 215 1 215 20 0 11 7 20 15 20 8 0 15 7 15 15 0 8 7 15 15 15 8
0 15 7 15 15 0 8 9 15 20 15 11 0 20 7 20 15 0 8 7 15 15 15 8 0 15 7 15 15 0
11 12 15 45 15 33 0 45 4 45 15 0 8 7 15 15 15 10 0 15 10 15 30 0 20 5 30 15
30 10 0 15 10 15 30 0 20 5 30 15 30 10 0 15 11 15 35 0 24 5 35 15 35 13 0
15 24 15 155 0 131 2 155 15 155 12 0 15 13 15 60 0 53 2 60 20 60 19 0 20 7
20 95 0 78 3 95 15 95 11 0 15 12 15 45 0 33 4 45 15 45 10 0 15 10 15 30 0
20 5 30 15 30 13 0 15 21 15 125 0 104 -2 125 -15 125 -8 0 -15 7 -15 15 0 8
-7 15 -15 15 -8 0 -15 7 -15 15 0 10 -11 15 -35 15 -24 0 -35 -5 -35 -15z m40
-60 c0 -8 7 -15 15 -15 12 0 15 -17 15 -95 0 -78 -3 -95 -15 -95 -10 0 -15
-10 -15 -30 0 -23 -4 -30 -20 -30 -17 0 -20 -7 -20 -45 0 -33 -4 -45 -15 -45
-12 0 -15 -19 -15 -110 0 -91 -3 -110 -15 -110 -11 0 -15 -12 -15 -45 0 -33
-4 -45 -15 -45 -13 0 -15 -24 -15 -155 0 -131 -2 -155 -15 -155 -10 0 -15 -10
-15 -30 0 -20 -5 -30 -15 -30 -10 0 -15 -11 -15 -35 0 -24 -5 -35 -15 -35 -8
0 -15 -7 -15 -15 0 -8 -7 -15 -15 -15 -8 0 -15 -7 -15 -15 0 -10 -10 -15 -30
-15 -20 0 -30 -5 -30 -15 0 -8 -9 -15 -20 -15 -11 0 -20 -7 -20 -15 0 -8 -7
-15 -15 -15 -8 0 -15 -7 -15 -15 0 -8 -7 -15 -15 -15 -8 0 -15 -7 -15 -15 0
-8 -7 -15 -15 -15 -8 0 -15 -7 -15 -15 0 -13 -27 -15 -185 -15 -158 0 -185 2
-185 15 0 8 -7 15 -15 15 -10 0 -15 10 -15 30 0 20 -5 30 -15 30 -8 0 -15 7
-15 15 0 8 -7 15 -15 15 -8 0 -15 7 -15 15 0 8 -7 15 -15 15 -8 0 -15 7 -15
15 0 8 -7 15 -15 15 -8 0 -15 7 -15 15 0 8 -9 15 -20 15 -16 0 -20 7 -20 35 0
24 -5 35 -15 35 -8 0 -15 7 -15 15 0 8 -7 15 -15 15 -10 0 -15 10 -15 30 0 20
-5 30 -15 30 -12 0 -15 17 -15 90 0 73 -3 90 -15 90 -8 0 -15 9 -15 20 0 11
-7 20 -15 20 -10 0 -15 10 -15 30 0 20 -5 30 -15 30 -8 0 -15 7 -15 15 0 8 -7
15 -15 15 -8 0 -15 7 -15 15 0 8 -7 15 -15 15 -8 0 -15 7 -15 15 0 8 -7 15
-15 15 -8 0 -15 7 -15 15 0 8 -9 15 -20 15 -11 0 -20 7 -20 15 0 8 -7 15 -15
15 -8 0 -15 7 -15 15 0 8 -7 15 -15 15 -8 0 -15 7 -15 15 0 8 -7 15 -15 15 -8
0 -15 7 -15 15 0 8 7 15 15 15 8 0 15 9 15 20 0 16 7 20 30 20 23 0 30 -4 30
-20 0 -13 7 -20 20 -20 11 0 20 -7 20 -15 0 -8 7 -15 15 -15 8 0 15 -7 15 -15
0 -8 7 -15 15 -15 8 0 15 -7 15 -15 0 -8 7 -15 15 -15 8 0 15 -7 15 -15 0 -8
7 -15 15 -15 10 0 15 -10 15 -30 0 -20 5 -30 15 -30 8 0 15 -7 15 -15 0 -8 7
-15 15 -15 8 0 15 -7 15 -15 0 -8 7 -15 15 -15 10 0 15 -10 15 -30 0 -20 5
-30 15 -30 8 0 15 -9 15 -20 0 -11 7 -20 15 -20 8 0 15 -7 15 -15 0 -8 9 -15
20 -15 11 0 20 -7 20 -15 0 -8 7 -15 15 -15 8 0 15 -7 15 -15 0 -8 7 -15 15
-15 8 0 15 -7 15 -15 0 -10 10 -15 30 -15 20 0 30 -5 30 -15 0 -10 10 -15 30
-15 20 0 30 -5 30 -15 0 -8 7 -15 15 -15 8 0 15 -7 15 -15 0 -8 7 -15 15 -15
8 0 15 -7 15 -15 0 -8 7 -15 15 -15 8 0 15 -7 15 -15 0 -8 9 -15 20 -15 13 0
20 -7 20 -20 0 -11 7 -20 15 -20 8 0 15 -7 15 -15 0 -8 7 -15 15 -15 8 0 15
-7 15 -15 0 -11 12 -15 45 -15 33 0 45 4 45 15 0 8 7 15 15 15 10 0 15 11 15
35 0 24 -5 35 -15 35 -10 0 -15 10 -15 30 0 20 -5 30 -15 30 -8 0 -15 7 -15
15 0 10 -10 15 -30 15 -20 0 -30 5 -30 15 0 8 -7 15 -15 15 -8 0 -15 7 -15 15
0 8 -7 15 -15 15 -8 0 -15 7 -15 15 0 8 -9 15 -20 15 -11 0 -20 7 -20 15 0 8
-7 15 -15 15 -8 0 -15 7 -15 15 0 8 -7 15 -15 15 -8 0 -15 7 -15 15 0 8 -7 15
-15 15 -8 0 -15 9 -15 20 0 11 -7 20 -15 20 -8 0 -15 7 -15 15 0 8 -7 15 -15
15 -10 0 -15 10 -15 30 0 20 -5 30 -15 30 -12 0 -15 13 -15 60 0 47 3 60 15
60 10 0 15 10 15 30 0 20 5 30 15 30 8 0 15 7 15 15 0 8 7 15 15 15 8 0 15 9
15 20 0 11 7 20 15 20 8 0 15 7 15 15 0 12 19 15 110 15 91 0 110 -3 110 -15
0 -10 10 -15 30 -15 23 0 30 -4 30 -20 0 -16 7 -20 30 -20 20 0 30 -5 30 -15
0 -8 7 -15 15 -15 10 0 15 -10 15 -30 0 -27 -3 -30 -30 -30 -20 0 -30 5 -30
15 0 10 -10 15 -30 15 -20 0 -30 5 -30 15 0 8 -7 15 -15 15 -8 0 -15 -7 -15
-15 0 -8 -7 -15 -15 -15 -8 0 -15 -7 -15 -15 0 -8 -7 -15 -15 -15 -10 0 -15
-10 -15 -30 0 -20 5 -30 15 -30 8 0 15 -7 15 -15 0 -8 7 -15 15 -15 10 0 15
-10 15 -30 0 -20 5 -30 15 -30 8 0 15 -7 15 -15 0 -8 -7 -15 -15 -15 -11 0
-15 -12 -15 -50 0 -38 4 -50 15 -50 8 0 15 -7 15 -15 0 -10 10 -15 30 -15 20
0 30 5 30 15 0 8 7 15 15 15 8 0 15 7 15 15 0 8 7 15 15 15 8 0 15 9 15 20 0
16 7 20 35 20 24 0 35 5 35 15 0 8 7 15 15 15 11 0 15 12 15 45 0 33 -4 45
-15 45 -10 0 -15 10 -15 30 0 20 5 30 15 30 8 0 15 7 15 15 0 8 7 15 15 15 8
0 15 7 15 15 0 8 7 15 15 15 8 0 15 7 15 15 0 10 10 15 30 15 20 0 30 5 30 15
0 8 7 15 15 15 8 0 15 9 15 20 0 11 7 20 15 20 11 0 15 12 15 45 0 33 4 45 15
45 13 0 15 22 15 140 0 118 2 140 15 140 8 0 15 7 15 15 0 8 9 15 20 15 11 0
20 -7 20 -15z m-440 -560 c0 -10 10 -15 30 -15 20 0 30 -5 30 -15 0 -8 7 -15
15 -15 10 0 15 -10 15 -30 0 -27 -3 -30 -30 -30 -20 0 -30 -5 -30 -15 0 -8 -7
-15 -15 -15 -8 0 -15 -7 -15 -15 0 -8 -7 -15 -15 -15 -8 0 -15 7 -15 15 0 8 7
15 15 15 10 0 15 10 15 30 0 20 -5 30 -15 30 -8 0 -15 7 -15 15 0 8 -7 15 -15
15 -10 0 -15 10 -15 30 0 27 3 30 30 30 20 0 30 -5 30 -15z m-180 -400 c0 -8
7 -15 15 -15 8 0 15 -7 15 -15 0 -8 7 -15 15 -15 8 0 15 -7 15 -15 0 -8 7 -15
15 -15 8 0 15 -9 15 -20 0 -11 -7 -20 -15 -20 -8 0 -15 9 -15 20 0 11 -7 20
-15 20 -8 0 -15 7 -15 15 0 8 -7 15 -15 15 -8 0 -15 7 -15 15 0 8 -7 15 -15
15 -8 0 -15 7 -15 15 0 8 7 15 15 15 8 0 15 -7 15 -15z"/>
</g>
</svg>
